<?xml version="1.0" standalone="no"?>
<!DOCTYPE svg PUBLIC "-//W3C//DTD SVG 20010904//EN"
 "http://www.w3.org/TR/2001/REC-SVG-20010904/DTD/svg10.dtd">
<svg version="1.0" xmlns="http://www.w3.org/2000/svg"
 width="920.000000pt" height="483.000000pt" viewBox="0 0 920.000000 483.000000"
 preserveAspectRatio="xMidYMid meet">

<g transform="translate(0.000000,483.000000) scale(0.100000,-0.100000)"
fill="#000000" stroke="none">
<path d="M4390 4650 c-688 -60 -1321 -437 -1705 -1015 -191 -288 -308 -590
-362 -936 -24 -158 -24 -518 1 -679 51 -336 170 -645 351 -915 241 -360 527
-616 887 -795 169 -84 295 -130 353 -130 35 0 52 6 77 29 l33 29 3 241 3 241
-43 -7 c-24 -5 -117 -8 -208 -7 -178 0 -235 11 -334 61 -53 27 -143 112 -163
153 -7 14 -34 72 -61 130 -56 117 -122 207 -184 248 -57 37 -128 106 -128 124
0 30 30 42 100 41 129 -2 266 -95 365 -248 60 -94 133 -163 213 -202 52 -26
66 -28 172 -28 92 0 130 5 188 23 79 25 80 26 103 117 16 65 51 136 90 180 18
20 30 37 28 39 -2 1 -62 12 -134 24 -443 76 -712 280 -828 629 -55 165 -71
270 -70 468 0 141 4 184 21 250 28 104 98 244 160 321 l50 61 -21 59 c-18 50
-21 81 -21 209 1 134 4 160 28 240 15 50 31 94 35 98 18 18 130 8 208 -19 103
-35 270 -114 358 -169 l70 -43 100 23 c290 69 671 67 969 -4 l79 -19 81 51
c228 143 509 231 551 174 19 -26 53 -158 66 -255 12 -90 1 -214 -27 -295 l-15
-46 52 -68 c70 -91 135 -230 160 -345 18 -82 20 -115 15 -273 -15 -500 -186
-786 -572 -955 -104 -45 -202 -72 -355 -97 l-106 -17 35 -45 c99 -129 111
-202 112 -674 0 -308 2 -373 15 -397 34 -66 102 -67 263 -4 280 111 510 257
722 460 529 508 775 1157 716 1889 -43 520 -287 1037 -669 1417 -349 347 -793
569 -1287 644 -117 17 -412 25 -540 14z"/>
</g>
</svg>
