<svg width="1500" height="1500" viewBox="0 0 1500 1500" fill="none" xmlns="http://www.w3.org/2000/svg">
<path d="M1303.26 1256.37C1199.79 1369.41 1064.19 1448.05 914.683 1481.7C765.18 1515.35 608.957 1502.39 467.039 1444.57C325.12 1386.76 204.318 1286.86 120.89 1158.31C37.4614 1029.77 -4.5892 878.758 0.397145 725.596C5.38349 572.434 57.1675 424.475 148.78 301.631C240.393 178.787 367.437 86.9548 512.815 38.4922C658.193 -9.97038 814.928 -12.737 961.926 30.5646C1108.92 73.8662 1239.13 161.158 1335.02 280.692L1274.92 328.903C1188.88 221.649 1072.05 143.324 940.155 104.471C808.258 65.6178 667.624 68.1002 537.181 111.584C406.737 155.068 292.744 237.467 210.543 347.691C128.341 457.916 81.8768 590.675 77.4027 728.103C72.9286 865.531 110.659 1001.03 185.517 1116.37C260.375 1231.71 368.768 1321.34 496.107 1373.22C623.446 1425.1 763.62 1436.72 897.765 1406.53C1031.91 1376.34 1153.59 1305.78 1246.42 1204.35L1303.26 1256.37Z" fill="red"/>
<line y1="743" x2="1500" y2="743" stroke="red" stroke-width="80"/>
<line x1="1272.62" y1="1283.16" x2="829.618" y2="867.159" stroke="red" stroke-width="80"/>
<line x1="1300.07" y1="292.033" x2="208.925" y2="292.033" stroke="red" stroke-width="80"/>
<path d="M467.591 622.905C480.917 640.525 506.401 644.554 524.511 631.904C542.622 619.254 546.502 594.715 533.177 577.095L467.591 622.905ZM208.564 280.388L467.591 622.905L533.177 577.095L274.15 234.578L208.564 280.388Z" fill="red"/>
<path d="M644.376 622.927C657.832 640.447 683.347 644.288 701.365 631.506C719.383 618.724 723.081 594.159 709.624 576.639L644.376 622.927ZM393.857 296.764L644.376 622.927L709.624 576.639L459.105 250.476L393.857 296.764Z" fill="red"/>
<path d="M1299.54 263.053C1053.46 750.358 666.374 1105.03 219.438 1225.9" stroke="red" stroke-width="80"/>
</svg>
