<?xml version="1.0" standalone="no"?>
<!DOCTYPE svg PUBLIC "-//W3C//DTD SVG 20010904//EN"
 "http://www.w3.org/TR/2001/REC-SVG-20010904/DTD/svg10.dtd">
<svg version="1.0" xmlns="http://www.w3.org/2000/svg"
 width="1080.000000pt" height="1080.000000pt" viewBox="0 0 1080.000000 1080.000000"
 preserveAspectRatio="xMidYMid meet">

<g transform="translate(0.000000,1080.000000) scale(0.100000,-0.100000)"
fill="#000000" stroke="none">
<path d="M5145 9620 c-234 -13 -306 -24 -565 -86 -405 -98 -657 -223 -993
-493 -153 -123 -320 -303 -495 -535 -50 -66 -55 -70 -176 -126 -175 -81 -176
-82 -215 -192 -78 -223 -89 -261 -126 -433 -14 -66 -30 -140 -36 -165 -28
-120 -51 -359 -56 -563 l-5 -218 -30 28 c-68 63 -89 188 -49 293 11 27 15 53
10 56 -5 3 -9 1 -9 -4 0 -5 -23 -24 -51 -43 -29 -20 -67 -59 -90 -93 -24 -36
-39 -51 -39 -40 -1 30 -36 -20 -60 -84 -32 -85 -25 -184 20 -264 19 -34 -8
-18 -49 28 -38 44 -60 96 -76 186 -8 43 -21 41 -52 -5 -17 -25 -24 -54 -29
-119 -6 -76 -4 -96 16 -155 13 -37 30 -79 39 -92 8 -13 16 -31 18 -40 3 -24
90 -97 196 -165 40 -26 157 -33 215 -13 23 8 42 12 42 8 0 -3 -7 -31 -15 -61
-17 -64 -19 -156 -4 -220 16 -71 91 -176 152 -213 35 -23 34 -33 -5 -42 -29
-7 -24 -9 42 -16 41 -5 139 -11 217 -14 78 -2 148 -6 155 -7 6 -2 13 4 13 12
2 31 26 72 45 77 11 3 20 11 20 19 0 8 -7 11 -17 8 -15 -5 -16 -4 -3 5 21 15
30 14 30 -4 0 -9 7 -18 15 -21 8 -4 30 -20 48 -37 17 -17 25 -27 17 -23 -8 4
-4 -2 10 -13 28 -23 26 -24 -46 -21 -29 1 -55 -3 -58 -9 -5 -7 5 -11 27 -11
93 0 403 -22 487 -35 84 -12 192 -19 243 -16 31 2 18 21 -15 21 -42 0 -33 6
22 13 28 4 37 3 25 -2 -17 -7 -13 -10 20 -16 76 -13 109 -28 143 -64 18 -20
44 -48 58 -62 l24 -25 -32 -24 -32 -23 -43 48 c-32 37 -50 49 -75 51 -18 2
-71 8 -118 13 -46 6 -105 10 -130 10 -31 -1 -15 -5 55 -15 116 -15 185 -33
185 -46 0 -5 -10 -6 -22 -3 -13 3 -18 3 -12 -2 32 -23 56 -97 61 -192 3 -53 9
-100 14 -106 6 -5 9 -4 9 3 0 7 5 12 11 12 8 0 9 -4 0 -13 -6 -8 -9 -17 -6
-20 3 -4 2 -5 -1 -3 -12 9 -64 -55 -64 -80 0 -19 7 -28 30 -35 17 -6 30 -17
30 -25 0 -8 2 -14 5 -14 9 0 89 54 97 65 5 6 8 5 8 -3 0 -7 -12 -18 -26 -24
-21 -10 -24 -16 -19 -37 4 -14 10 -28 14 -31 3 -3 22 -39 40 -80 19 -41 37
-77 41 -80 4 -3 10 -18 13 -35 2 -16 10 -57 17 -89 6 -33 10 -75 8 -93 -2 -18
-1 -33 3 -33 5 0 -1 -25 -11 -56 -18 -51 -18 -58 -4 -79 9 -13 30 -27 47 -30
18 -4 51 -16 74 -26 46 -21 66 -25 43 -8 -12 9 -12 10 3 5 10 -3 26 -6 35 -7
14 0 13 -2 -3 -9 -18 -7 -18 -8 8 -15 15 -4 27 -11 27 -15 0 -10 94 -50 117
-49 16 0 16 1 -2 9 -14 6 -15 9 -4 9 8 1 20 -4 27 -11 16 -16 16 4 0 22 -7 8
-1 4 15 -9 15 -14 27 -29 27 -35 0 -6 -4 -4 -10 4 -5 8 -12 11 -17 7 -7 -8 44
-56 60 -57 4 0 18 11 30 24 21 23 111 51 129 40 4 -3 10 -21 14 -42 3 -20 14
-46 24 -57 10 -11 23 -30 29 -43 6 -12 22 -29 36 -38 19 -13 27 -13 44 -2 18
11 24 10 43 -10 24 -23 11 -30 -23 -12 -10 6 -19 7 -19 2 0 -5 10 -13 23 -19
12 -5 56 -26 98 -46 82 -40 99 -43 116 -26 7 7 22 9 40 4 l28 -8 -25 -6 c-20
-6 -15 -9 32 -20 31 -8 64 -11 73 -7 27 10 11 30 -31 38 -21 3 -52 11 -67 17
-16 6 -33 9 -37 6 -5 -3 -39 10 -75 30 -37 19 -72 35 -79 35 -7 0 -23 9 -36
20 -13 11 -28 20 -34 20 -14 0 -71 69 -80 97 -4 12 -13 27 -21 33 -17 14 -3
50 19 50 14 0 71 48 65 55 -9 8 -55 9 -67 1 -8 -5 -5 8 7 33 28 54 27 102 -2
129 -24 22 -67 30 -67 12 0 -5 4 -10 9 -10 18 0 20 -31 5 -63 -23 -48 -41 -56
-104 -47 -30 5 -150 11 -267 14 -236 7 -268 14 -258 55 3 14 21 49 40 78 40
61 71 148 84 235 29 196 42 272 57 324 9 33 18 69 21 82 4 18 12 22 47 22 111
0 284 -52 335 -100 17 -17 36 -30 42 -30 6 0 19 -10 29 -22 16 -20 19 -21 34
-6 12 12 13 18 3 21 -9 4 -9 6 0 6 16 1 29 -22 15 -27 -17 -5 -15 -22 4 -22 8
0 13 -4 10 -9 -7 -11 19 -33 28 -23 4 4 6 2 4 -3 -4 -16 64 -95 75 -88 6 3 7
1 3 -5 -4 -7 2 -22 14 -34 18 -19 22 -21 30 -8 8 12 9 10 8 -9 -2 -13 3 -26
10 -28 7 -3 12 -1 11 4 -4 26 1 34 15 21 12 -11 12 -14 0 -21 -23 -13 -17 -22
31 -45 54 -26 62 -27 45 -7 -10 13 -11 18 -1 28 10 9 11 8 5 -7 -6 -15 -4 -18
9 -13 10 4 14 2 11 -7 -3 -9 7 -13 33 -14 l37 -2 -35 29 c-19 16 -68 62 -110
102 -41 41 -97 93 -124 117 l-50 43 28 24 c15 13 34 22 42 19 26 -10 17 35
-12 62 -16 13 -37 33 -49 44 -27 25 -95 164 -90 182 2 7 7 26 11 42 3 15 8 26
11 23 3 -3 16 5 30 18 13 13 37 25 52 28 15 2 65 12 111 21 54 11 168 20 321
25 202 7 241 10 255 24 14 15 46 17 261 17 146 0 253 -4 264 -10 25 -13 37
-58 55 -211 l16 -127 -47 -88 c-52 -100 -76 -136 -113 -178 -24 -27 -25 -28
-3 -17 12 6 22 16 22 21 0 6 9 10 21 10 30 0 105 60 88 71 -10 6 -10 9 4 15 9
3 17 12 17 18 0 13 59 137 69 146 23 20 41 88 41 156 0 41 5 84 10 95 16 28
67 79 74 72 3 -4 6 9 7 28 l1 34 9 -35 c10 -41 27 -176 31 -238 1 -26 5 -39
11 -33 6 6 3 62 -8 148 -10 76 -20 159 -22 186 -4 41 -8 48 -31 54 -15 4 -117
7 -227 7 -159 -1 -241 -6 -400 -28 -233 -32 -291 -39 -480 -61 -77 -9 -178
-22 -225 -30 -47 -8 -97 -15 -112 -15 -20 0 -40 -15 -80 -59 l-53 -60 -27 26
-27 26 32 29 c18 17 46 43 63 59 32 31 71 38 479 79 66 7 233 28 370 47 319
44 408 52 578 53 76 0 170 5 208 12 53 8 73 8 81 0 7 -7 13 -51 14 -104 2 -51
5 -102 8 -113 3 -11 6 -66 7 -123 l3 -104 -65 -66 c-35 -37 -85 -90 -111 -117
-25 -28 -112 -115 -192 -194 -80 -80 -143 -147 -141 -149 11 -11 248 215 372
353 68 77 105 96 70 36 -25 -43 -22 -63 8 -55 18 4 25 2 25 -8 0 -21 -21 -38
-46 -38 -23 0 -34 -17 -34 -53 0 -12 -9 -28 -20 -35 -29 -18 -25 -29 9 -24 39
5 50 -16 21 -40 -23 -19 -24 -19 -31 -2 -5 17 -7 17 -17 -3 -16 -29 -15 -34 3
-27 10 4 15 0 15 -16 0 -12 -4 -18 -11 -15 -5 4 -19 -1 -30 -11 -22 -20 -26
-43 -4 -24 17 14 55 4 55 -15 0 -21 -14 -25 -47 -16 -27 8 -30 6 -30 -13 -1
-56 -4 -64 -26 -70 -24 -6 -51 -55 -63 -114 -4 -18 -14 -34 -25 -37 -11 -4
-19 -11 -19 -16 0 -11 7 -11 29 0 19 11 35 4 44 -19 4 -10 6 -8 6 7 1 12 12
34 27 48 14 14 22 30 18 36 -3 6 3 20 14 32 11 12 22 38 26 58 4 20 18 49 31
65 22 25 24 35 19 72 -6 38 -3 47 21 72 17 18 25 35 21 47 -9 29 10 92 34 111
18 15 21 24 15 50 -3 18 -11 30 -16 26 -5 -3 -9 0 -9 5 0 6 9 11 19 11 27 0
36 17 37 71 0 25 5 52 9 59 5 8 8 55 6 106 -2 89 -2 92 26 117 95 86 166 145
223 185 36 25 93 67 126 94 65 50 89 60 80 31 -3 -10 -12 -76 -21 -148 -8 -71
-28 -226 -43 -342 -15 -117 -26 -213 -25 -213 9 0 44 98 74 202 17 62 40 140
49 173 31 104 119 335 151 395 31 58 94 129 105 118 3 -3 -5 -15 -17 -27 -12
-11 -20 -23 -17 -27 11 -10 56 26 114 93 81 92 148 139 236 163 94 26 116 25
160 -5 44 -30 113 -143 140 -228 25 -81 48 -272 49 -399 0 -106 -1 -109 -52
-239 -29 -73 -72 -161 -97 -198 -73 -106 -241 -310 -316 -384 l-70 -69 -11 49
c-19 82 -61 123 -126 123 -43 0 -83 -32 -109 -87 -27 -57 -75 -107 -97 -99 -8
3 -19 6 -24 6 -14 0 -10 31 10 77 12 25 15 40 8 37 -16 -6 -75 -99 -126 -199
-23 -44 -48 -91 -56 -105 -7 -14 -39 -78 -71 -144 -33 -65 -67 -128 -77 -139
-10 -12 -42 -57 -72 -102 -30 -44 -76 -102 -103 -130 -80 -81 -140 -135 -151
-135 -6 0 -11 -5 -11 -11 0 -5 5 -7 12 -3 7 4 8 3 4 -5 -4 -6 -11 -9 -16 -6
-4 2 -20 -5 -35 -17 -21 -16 -24 -23 -13 -30 10 -7 8 -8 -5 -4 -12 4 -29 -5
-52 -27 -18 -17 -74 -61 -124 -97 -50 -36 -88 -70 -86 -77 2 -7 -2 -10 -9 -7
-7 3 -21 -4 -31 -16 -10 -11 -21 -20 -26 -20 -4 0 -23 -14 -43 -32 -27 -24
-33 -34 -24 -41 9 -6 7 -7 -5 -3 -19 6 -114 -58 -110 -75 2 -4 -3 -6 -11 -3
-7 3 -21 -2 -29 -11 -9 -9 -58 -47 -109 -85 -51 -38 -98 -74 -105 -80 -7 -5
-16 -10 -20 -10 -5 0 -24 -13 -43 -30 -19 -16 -38 -29 -43 -30 -10 0 -122 -92
-122 -99 0 -3 -5 -5 -12 -3 -16 3 -17 -14 -2 -23 11 -8 80 36 73 46 -2 4 5 5
16 2 19 -5 19 -7 -7 -20 -15 -8 -36 -22 -46 -30 -15 -14 -21 -14 -43 -3 -16 9
-28 10 -32 4 -4 -5 -20 -18 -37 -28 -72 -45 -97 -68 -84 -78 10 -6 7 -7 -9 -3
-14 4 -24 2 -27 -7 -3 -8 -28 -27 -55 -43 -27 -16 -47 -32 -44 -37 3 -4 -1 -8
-9 -8 -23 0 -110 -62 -97 -70 8 -5 7 -9 -5 -13 -9 -4 -13 -3 -10 3 3 6 1 10
-6 10 -16 0 -81 -41 -75 -48 3 -2 11 0 18 5 16 12 48 24 48 18 0 -9 -61 -36
-70 -30 -13 8 -61 -25 -54 -36 3 -5 0 -9 -5 -9 -6 0 -11 4 -11 10 0 5 -17 0
-37 -12 -21 -12 -48 -27 -61 -33 -16 -9 -19 -15 -10 -18 7 -3 2 -6 -12 -7 -14
0 -59 -4 -100 -8 -146 -14 -196 10 -284 134 -81 114 -228 283 -328 379 -208
199 -236 226 -309 301 -41 44 -99 111 -129 149 -29 39 -56 72 -61 73 -5 2 -7
8 -3 13 3 5 1 9 -5 9 -6 0 -23 22 -39 50 -16 27 -31 47 -35 44 -3 -4 -9 7 -13
22 -4 16 -22 60 -40 97 -28 59 -34 66 -43 50 -10 -15 -10 -14 -6 7 6 24 -8 56
-63 155 -23 43 -60 132 -67 163 -3 17 -10 32 -14 32 -4 0 -7 8 -8 18 -1 9 -9
37 -18 62 -9 25 -24 72 -34 105 -9 33 -18 62 -21 65 -3 3 -12 34 -19 70 -8 36
-16 75 -18 86 -4 17 7 31 51 63 69 52 124 60 379 61 107 0 177 4 177 10 0 13
-516 2 -552 -12 -17 -6 -25 -15 -21 -24 3 -9 -1 -14 -12 -14 -9 0 -13 -5 -9
-11 8 -14 -48 -8 -58 6 -5 6 -12 4 -18 -5 -8 -13 -10 -13 -10 2 0 9 9 18 20
20 32 5 19 23 -15 21 -16 -1 -44 2 -61 6 -17 5 -36 6 -42 2 -29 -18 104 -472
199 -676 30 -65 130 -224 161 -256 27 -29 95 -116 123 -159 83 -125 301 -364
530 -581 129 -123 304 -311 368 -399 77 -103 137 -157 196 -174 69 -20 189
-21 266 -1 64 16 202 82 300 142 102 63 161 63 299 -2 56 -26 86 -49 125 -92
69 -78 88 -121 111 -249 11 -60 24 -132 29 -160 5 -28 37 -109 71 -180 l62
-129 -27 -50 c-15 -27 -52 -97 -83 -155 l-54 -105 6 -155 c5 -103 3 -173 -4
-210 -15 -72 -50 -169 -64 -178 -45 -28 -364 -174 -403 -183 -61 -16 -192 -68
-308 -123 -266 -128 -351 -171 -465 -234 -259 -146 -443 -310 -524 -469 -14
-29 -26 -55 -26 -58 0 -3 1141 -5 2534 -5 l2535 0 -6 313 c-3 207 -2 320 5
337 8 18 11 -68 11 -312 l1 -338 35 0 35 0 3 163 3 162 2 -162 2 -163 36 0 35
0 -1 148 c0 81 2 337 5 568 6 413 6 422 -14 455 -12 19 -21 43 -22 54 -1 11
-6 0 -12 -25 l-11 -45 -6 76 c-3 43 -11 83 -17 91 -7 8 -14 43 -16 78 l-3 65
-2 -78 c-1 -43 -6 -76 -11 -73 -5 3 -12 -27 -15 -67 -11 -119 -26 -367 -27
-452 -1 -53 -4 -71 -8 -55 -7 21 -9 18 -15 -25 -13 -90 -15 -82 -10 50 3 72 5
164 6 205 0 60 2 67 7 35 5 -31 8 -13 14 75 9 155 9 400 -1 400 -5 0 -14 -132
-21 -292 -7 -161 -18 -331 -25 -378 -12 -84 -12 -82 -14 129 -2 155 1 216 9
222 19 11 28 231 18 439 l-1 25 -12 -24 c-9 -16 -12 -68 -11 -170 2 -125 1
-132 -4 -51 -4 52 -8 84 -9 70 -26 -325 -51 -886 -54 -1185 -1 -168 -2 -179
-8 -95 -13 160 -10 528 5 870 8 179 15 380 15 447 0 73 4 124 10 128 7 4 9 -2
6 -17 -7 -32 -19 -564 -13 -558 5 5 31 527 30 580 -1 13 -6 26 -12 28 -6 2
-11 11 -11 21 0 9 -6 25 -14 36 -7 11 -16 33 -20 50 -6 22 -10 26 -16 15 -10
-20 -30 -636 -32 -1005 -1 -280 -1 -285 -9 -135 -9 161 -7 305 13 867 11 317
10 333 -7 360 l-19 28 -7 -30 c-20 -77 -39 -501 -40 -888 -2 -335 -4 -391 -11
-297 -12 153 -3 727 17 1014 l15 228 -37 42 c-37 39 -69 70 -196 180 -80 69
-140 133 -174 183 -62 93 -139 167 -193 188 -63 24 -75 42 -49 75 27 36 25
138 -5 237 -76 246 -50 431 76 549 93 88 256 154 378 154 76 0 227 -21 359
-50 52 -11 119 -20 148 -20 166 0 355 -60 449 -142 37 -33 58 -91 48 -135 -4
-22 -3 -25 5 -13 8 12 11 12 11 1 0 -7 -23 -53 -50 -101 -45 -76 -49 -90 -40
-114 6 -16 6 -25 0 -21 -10 6 -50 -75 -71 -143 -7 -23 -15 -42 -19 -42 -4 0
-5 -12 -3 -28 2 -15 -14 -78 -36 -140 -47 -134 -60 -116 138 -174 155 -44 302
-92 346 -112 17 -8 65 -28 108 -46 43 -18 84 -38 92 -46 7 -8 17 -14 21 -14 8
0 147 -94 181 -123 92 -78 148 -131 306 -292 98 -99 199 -211 224 -250 77
-114 73 -119 73 85 l0 182 -35 48 c-37 50 -197 203 -300 286 -33 27 -66 54
-73 61 -7 6 -40 26 -74 43 -34 18 -88 54 -120 80 -32 27 -84 63 -115 81 -72
40 -143 96 -143 113 0 6 -18 30 -41 51 -57 55 -149 188 -182 261 -42 95 -44
135 -11 239 15 50 33 99 41 110 7 11 13 26 13 35 0 8 -35 51 -78 95 -157 164
-182 180 -342 229 -47 14 -113 35 -148 46 -98 31 -440 68 -634 69 -49 1 -88 3
-88 6 0 3 17 38 38 77 31 62 37 83 37 138 1 36 4 81 8 100 5 19 4 53 -1 75
l-8 40 -27 -46 c-33 -56 -120 -140 -164 -158 -21 -9 -49 -11 -78 -7 -45 7 -54
26 -12 26 34 0 132 84 156 133 25 52 28 135 5 178 -8 17 -18 29 -20 26 -3 -3
1 -18 10 -35 23 -44 6 -88 -56 -149 -98 -97 -179 -102 -265 -17 -29 29 -59 76
-84 131 -38 80 -44 112 -17 85 23 -23 54 -15 157 36 50 24 52 44 4 26 -52 -18
-109 -17 -138 2 -37 24 -62 124 -70 274 -8 160 17 300 70 400 125 231 225 469
225 536 1 26 10 34 83 74 90 49 181 133 204 188 14 35 9 58 -7 32 -5 -8 -12
-11 -16 -7 -4 3 -1 13 6 22 20 24 6 28 -32 10 l-33 -16 30 27 c21 18 24 24 10
19 -11 -5 -36 -10 -55 -12 -29 -4 -40 1 -67 29 -29 30 -73 129 -73 164 0 7 15
17 33 23 76 26 202 147 244 236 22 47 38 73 58 95 25 28 15 33 -35 15 -53 -19
-59 -19 -35 -1 18 13 15 13 -25 6 -69 -14 -174 -12 -194 3 -17 12 -15 15 21
42 21 16 46 37 56 46 39 41 95 131 107 174 20 70 2 75 -53 16 -49 -52 -77 -75
-61 -50 4 8 -7 1 -25 -14 -22 -18 -40 -26 -53 -21 -10 3 -24 1 -31 -4 -7 -6
-47 -19 -91 -30 l-78 -20 6 26 c53 250 68 409 69 732 1 273 -1 301 -21 381
-12 48 -22 93 -22 102 0 29 -51 192 -86 272 -40 94 -76 136 -138 161 -27 11
-49 27 -52 39 -23 74 -144 286 -223 390 -68 90 -306 325 -386 381 -38 27 -74
52 -80 56 -47 36 -229 151 -309 195 -257 143 -488 221 -791 267 -22 4 -83 13
-135 21 -273 43 -564 59 -815 45z m648 -60 c104 -11 207 -24 230 -29 23 -5 87
-17 142 -26 202 -34 474 -117 444 -136 -7 -4 -3 -7 12 -7 34 1 161 -57 248
-114 41 -26 78 -48 82 -48 5 0 9 -4 9 -10 0 -5 18 -19 40 -30 25 -13 38 -25
34 -32 -4 -6 -3 -8 4 -5 13 9 131 -67 221 -143 10 -8 38 -51 61 -95 71 -133
67 -223 -14 -308 -30 -32 -62 -49 -117 -61 -17 -4 -67 7 -134 29 -148 49 -316
82 -620 124 -77 11 -169 24 -205 30 -36 5 -103 12 -150 16 -47 3 -110 10 -140
15 -30 5 -109 14 -175 19 -66 6 -158 15 -205 20 -218 25 -410 32 -588 21 -97
-7 -233 -11 -302 -11 -254 4 -730 -20 -815 -39 -146 -34 -285 -53 -347 -47
-68 6 -98 31 -98 81 0 26 18 48 118 146 152 150 352 306 379 296 8 -3 11 -2 8
4 -3 5 9 17 27 26 18 9 35 20 38 25 8 11 178 89 270 124 41 15 89 33 105 40
17 7 82 25 145 40 63 15 124 31 135 35 20 8 45 13 180 30 39 5 124 18 190 29
104 18 151 20 360 16 142 -2 317 -13 428 -25z m-288 -837 c72 -8 177 -19 235
-23 58 -5 148 -14 200 -20 52 -6 140 -15 195 -21 247 -25 635 -90 790 -133 50
-13 110 -29 135 -36 25 -6 54 -16 65 -20 11 -5 67 -23 125 -40 58 -17 123 -40
145 -49 22 -10 56 -23 75 -29 19 -6 82 -26 140 -44 57 -18 150 -55 205 -83
112 -56 135 -81 155 -167 7 -29 16 -55 19 -58 4 -3 17 -47 31 -99 21 -83 23
-115 22 -271 -1 -203 -23 -318 -81 -430 -41 -81 -47 -87 -111 -142 -43 -38
-181 -27 -495 38 -66 13 -128 24 -137 24 -10 0 -18 4 -18 9 0 5 -19 11 -42 14
-24 2 -99 16 -168 31 -151 33 -349 39 -585 17 -103 -9 -375 -14 -860 -17 -872
-5 -1109 -10 -1339 -24 -135 -8 -199 -8 -259 1 -91 13 -310 7 -527 -16 -333
-35 -415 -39 -506 -26 -168 24 -216 64 -250 211 -23 104 -15 596 12 678 12 37
20 49 26 40 6 -9 7 -6 4 8 -4 11 3 39 14 62 11 22 20 45 20 50 0 13 41 94 54
108 15 14 121 68 156 79 14 4 66 27 117 51 50 24 94 44 97 44 3 0 34 13 69 29
86 39 200 72 407 116 41 9 125 27 185 40 148 31 309 53 495 65 85 6 202 15
260 20 90 7 379 26 530 33 88 4 267 -5 395 -20z m-627 -1664 c181 -120 332
-184 557 -235 100 -23 475 -28 496 -6 10 10 6 12 -21 12 -28 0 -14 7 61 33
101 35 153 62 145 76 -3 4 -29 11 -57 14 -29 4 -55 11 -58 16 -4 5 -24 11 -46
13 l-40 3 64 34 c36 18 77 43 93 54 l28 21 -27 12 c-26 12 -25 12 28 13 l56 1
18 -57 c19 -63 35 -403 19 -403 -20 0 -202 -31 -244 -41 -101 -25 -432 -134
-530 -176 -58 -24 -163 -73 -235 -108 -130 -65 -152 -74 -140 -55 12 20 -7 9
-31 -17 -21 -23 -25 -24 -20 -8 5 15 0 12 -17 -9 -24 -29 -62 -45 -54 -23 3 7
10 11 16 9 7 -1 10 2 6 8 -3 5 -10 10 -14 10 -10 0 -61 -112 -60 -131 0 -8 4
-5 9 6 7 17 9 17 9 3 1 -14 10 -18 35 -18 48 0 132 29 361 127 72 31 173 73
225 93 52 21 158 65 235 98 77 33 199 79 270 102 72 23 147 48 167 55 l37 13
25 -51 c56 -122 190 -267 269 -293 115 -38 314 4 531 113 85 43 111 52 117 41
12 -18 11 -261 -1 -293 -7 -18 -27 -34 -67 -52 -32 -14 -123 -57 -203 -96
-211 -102 -262 -118 -400 -123 l-115 -5 37 21 c39 21 158 136 158 152 0 16 62
87 82 93 84 27 -171 35 -307 10 -137 -26 -387 -63 -465 -70 -96 -8 -305 -42
-348 -56 -18 -6 -43 -8 -56 -5 -22 5 -23 8 -14 58 5 29 18 77 28 106 11 28 17
52 14 52 -4 0 4 9 17 20 29 23 22 25 -17 5 -16 -8 -39 -15 -52 -15 -31 0 -285
-123 -345 -168 -50 -36 -102 -106 -92 -122 4 -6 2 -10 -4 -10 -17 0 -25 -71
-11 -109 24 -71 35 -91 50 -91 13 0 13 -1 0 -10 -8 -5 -29 -10 -47 -10 -32 0
-42 -7 -143 -99 -25 -22 -50 -41 -56 -41 -6 0 -23 9 -37 21 -43 33 -188 96
-238 103 l-47 7 -27 76 c-26 75 -83 163 -135 213 -15 14 -35 41 -44 62 -19 39
-51 54 -75 35 -14 -10 -14 -10 -3 5 13 16 58 18 82 3 16 -10 12 3 -20 69 -36
72 -81 127 -88 108 -3 -10 -8 -8 -19 5 -14 17 -14 17 -10 -5 9 -40 -27 -21
-41 22 -11 35 -34 198 -28 204 2 1 34 -50 72 -115 68 -114 161 -222 238 -275
l31 -21 -33 35 c-18 19 -30 37 -26 41 3 3 17 -7 31 -24 14 -16 32 -29 40 -29
13 0 13 3 3 15 -9 11 -9 15 -1 15 7 0 6 9 -5 25 -19 30 -39 34 -24 5 18 -34 5
-22 -45 40 -27 33 -50 58 -53 56 -2 -3 8 -26 23 -51 24 -42 25 -46 7 -36 -40
22 -119 135 -209 301 -40 74 -123 260 -123 276 0 7 -4 16 -10 19 -6 4 -10 -15
-10 -50 0 -31 4 -54 9 -51 12 8 23 -22 17 -43 -7 -23 18 -178 27 -164 4 6 0
44 -8 84 -15 72 -13 103 4 58 5 -14 12 -65 15 -114 4 -50 9 -106 12 -125 4
-27 2 -32 -6 -20 -9 11 -10 3 -6 -37 9 -95 -11 -62 -53 87 -10 36 -22 108 -25
160 -11 151 -18 203 -27 188 -5 -7 -6 -22 -4 -33 8 -39 16 -180 10 -174 -3 3
-20 57 -37 120 -18 63 -34 107 -36 98 -6 -29 54 -270 81 -329 9 -19 21 -66 26
-105 5 -38 11 -79 14 -90 2 -11 2 -15 0 -9 -2 6 -15 17 -28 24 -14 7 -25 19
-25 27 0 7 -4 13 -9 13 -6 0 -17 26 -27 58 -9 31 -20 67 -25 80 -5 13 -9 33
-9 45 0 12 -7 30 -14 40 -8 10 -12 36 -10 65 3 41 2 42 -4 12 l-8 -35 -6 30
c-26 134 -53 249 -69 298 -11 31 -22 90 -25 130 l-7 72 144 18 c79 9 169 18
199 19 50 2 55 0 61 -22 7 -24 7 -24 8 -2 1 14 7 22 19 21 9 0 12 -3 5 -5 -17
-7 -7 -198 16 -305 35 -161 120 -363 183 -435 10 -11 18 -26 18 -33 0 -7 5 -9
13 -5 6 4 9 4 6 0 -4 -4 7 -21 23 -38 18 -19 25 -34 18 -38 -6 -4 14 -30 50
-64 34 -32 63 -56 66 -53 4 3 -13 30 -35 59 -94 120 -176 246 -217 333 -51
108 -56 128 -14 65 16 -25 47 -65 69 -90 106 -121 124 -140 129 -135 3 3 -3
15 -14 28 -52 58 -129 211 -173 343 -30 90 -57 290 -49 360 l3 29 220 5 c121
3 237 7 258 8 33 2 55 -9 145 -69z m67 61 c-33 -4 21 -4 120 -1 198 7 328 7
697 4 215 -3 247 -5 242 -18 -4 -8 -1 -15 5 -15 6 0 8 -6 5 -14 -3 -8 -11 -13
-18 -10 -8 3 -51 -5 -97 -17 -71 -18 -100 -20 -191 -15 -60 4 -108 4 -108 1 0
-12 86 -43 165 -61 56 -13 72 -20 52 -22 -15 -2 -25 -8 -21 -13 6 -10 86 -3
114 11 8 4 44 -1 80 -11 36 -10 52 -17 36 -15 -42 5 -227 -20 -235 -32 -6 -9
-55 -18 -153 -26 -26 -3 -55 -9 -65 -15 -13 -8 6 -11 77 -11 52 -1 113 -5 135
-9 102 -22 -189 -9 -345 14 -59 9 -142 33 -210 61 -139 56 -370 191 -370 216
0 4 33 7 73 6 l72 -1 -60 -7z m-2575 -30 c-31 -57 -34 -189 -6 -232 51 -77
104 -113 180 -122 21 -3 39 -6 40 -8 1 -2 11 -23 21 -48 10 -25 32 -64 47 -86
l28 -42 -63 -40 c-161 -106 -262 -129 -365 -84 -59 25 -83 23 -33 -3 38 -19
42 -39 5 -25 -40 16 -41 12 -4 -21 l35 -31 -50 27 c-27 15 -63 41 -79 59 -57
62 -108 135 -101 146 4 6 -1 32 -10 56 -13 34 -16 63 -12 115 6 79 13 96 22
53 31 -145 57 -187 132 -209 58 -17 153 -17 153 1 0 6 19 15 42 20 51 11 68
44 23 44 -26 0 -59 13 -82 34 -7 6 -18 16 -25 22 -29 25 -57 64 -69 97 -11 31
-10 41 4 69 8 18 29 62 46 98 28 61 62 110 75 110 4 0 -5 -18 -18 -39 -28 -44
-43 -91 -29 -91 6 0 15 12 22 28 19 41 74 132 79 128 2 -3 -2 -14 -8 -26z
m4357 14 l51 -7 7 -53 c5 -43 9 -51 19 -41 7 6 15 20 19 31 5 14 4 17 -8 12
-11 -4 -15 2 -15 23 0 27 2 29 27 22 30 -8 40 -32 42 -93 1 -28 5 -36 15 -32
8 3 17 18 19 32 2 15 5 -7 7 -48 2 -61 4 -69 10 -40 5 25 8 7 9 -63 1 -72 -3
-102 -13 -112 -11 -12 -15 -6 -20 36 -6 43 -9 48 -21 36 -8 -8 -17 -37 -21
-65 -6 -47 -8 -50 -23 -35 -15 16 -16 15 -19 -10 -4 -33 -13 -34 -49 -2 -59
52 -56 52 -48 4 12 -77 88 -142 198 -169 40 -10 62 -18 50 -19 -12 -1 -23 -6
-25 -12 -2 -5 -38 -13 -81 -16 -42 -3 -77 -10 -77 -16 0 -6 22 -7 58 -4 31 4
90 9 131 13 52 5 69 9 57 16 -9 5 -26 6 -39 3 l-22 -7 23 17 c15 11 35 15 55
12 59 -9 158 12 223 47 l64 34 -24 -28 c-57 -69 -150 -129 -311 -204 -128 -60
-268 -96 -372 -96 -72 0 -84 3 -136 34 -65 39 -68 42 -135 122 -53 65 -69 91
-103 175 -18 46 -22 83 -29 254 -4 110 -12 212 -18 227 l-11 27 87 4 c103 5
375 -1 449 -9z m-2542 -172 c-10 -11 -11 4 -6 93 l6 90 3 -89 c2 -49 0 -91 -3
-94z m49 46 c9 -178 21 -247 56 -326 36 -80 9 -50 -38 41 -49 98 -77 227 -52
242 6 3 7 18 4 32 -5 18 -3 24 4 19 8 -5 11 8 10 39 0 26 -5 45 -12 45 -6 0
-4 5 4 10 10 6 11 10 3 10 -7 0 -13 5 -13 10 0 6 6 10 14 10 10 0 15 -31 20
-132z m-530 70 c3 -13 6 -41 6 -64 0 -49 45 -273 94 -469 19 -77 38 -157 42
-179 6 -37 6 -38 -17 -31 -13 4 -49 20 -80 35 -143 72 -231 100 -344 111 -60
5 -113 11 -117 12 -3 1 23 33 59 71 36 38 71 79 78 90 7 12 41 68 77 126 86
140 148 254 148 273 0 16 26 47 40 47 4 0 10 -10 14 -22z m3385 0 c51 -5 130
-22 174 -37 89 -29 114 -55 123 -124 3 -29 0 -36 -19 -41 -52 -14 -163 3 -178
26 -4 6 -12 9 -18 7 -6 -2 -2 -14 12 -29 21 -24 27 -25 112 -23 55 2 85 -1 76
-6 -7 -5 -10 -14 -7 -20 13 -21 -27 -25 -76 -7 -27 9 -57 14 -67 11 -25 -8
-90 63 -69 76 10 7 8 13 -10 31 l-23 23 7 -45 c7 -45 34 -89 65 -106 9 -5 32
-18 50 -28 67 -38 175 -51 243 -28 21 7 41 10 44 8 3 -3 -4 -8 -14 -12 -10 -3
-31 -12 -46 -20 -19 -10 -27 -11 -30 -2 -3 9 -12 9 -38 0 -18 -7 -47 -11 -64
-11 l-31 2 30 5 c31 5 15 9 -185 43 -75 12 -92 24 -141 99 -33 50 -37 62 -41
143 -4 77 -3 87 11 82 9 -4 58 -11 110 -17z m-3477 -40 c-9 -24 -19 -45 -23
-48 -3 -3 -21 -34 -39 -70 -18 -36 -36 -67 -39 -70 -4 -3 -17 -26 -29 -51 -12
-25 -30 -54 -40 -65 -9 -10 -40 -50 -69 -89 -62 -84 -96 -117 -187 -179 -104
-71 -193 -88 -276 -52 -46 20 -145 99 -177 140 -17 23 -41 61 -54 86 -13 25
-28 48 -33 51 -5 4 -6 14 -3 22 3 9 3 17 -1 19 -8 3 -43 108 -36 108 3 0 9
-10 14 -22 7 -19 9 -20 9 -5 1 10 -11 39 -26 65 l-26 47 54 -58 c43 -47 63
-60 99 -68 31 -7 46 -7 48 0 2 6 11 11 20 12 10 0 0 7 -22 15 -21 7 -41 12
-45 10 -3 -2 -26 17 -51 42 l-45 45 40 -30 c47 -35 99 -55 122 -46 13 5 12 9
-8 24 -13 10 -30 19 -36 19 -8 0 -13 13 -13 29 l0 29 40 -39 c40 -39 78 -56
105 -45 8 3 12 12 9 20 -4 11 0 13 14 9 11 -2 23 0 26 6 4 6 20 11 37 11 18 0
29 5 29 14 0 8 16 16 39 20 48 7 64 26 24 27 -15 0 3 7 41 15 38 7 73 11 77 8
23 -14 -41 -93 -100 -124 -41 -21 -61 -40 -40 -40 11 0 25 6 150 63 30 13 80
48 111 76 44 40 57 48 62 35 3 -8 2 -13 -3 -10 -10 7 -33 -19 -54 -60 -21 -40
-100 -97 -182 -131 -36 -15 -63 -28 -62 -30 6 -6 112 29 157 52 44 22 110 86
198 192 45 55 54 58 159 61 l51 2 -16 -42z m2373 32 c-27 -12 -43 -12 -25 0 8
5 22 9 30 9 10 0 8 -3 -5 -9z m942 -27 c-3 -10 -5 -4 -5 12 0 17 2 24 5 18 2
-7 2 -21 0 -30z m-4156 -70 c5 -14 5 -23 -1 -23 -10 0 -30 65 -29 95 1 12 5 6
11 -15 5 -19 14 -45 19 -57z m629 62 c-7 -8 -17 -15 -22 -15 -6 0 -5 7 2 15 7
8 17 15 22 15 6 0 5 -7 -2 -15z m4690 -99 c-47 -101 -109 -171 -142 -160 -11
3 -23 2 -27 -2 -10 -15 -114 -82 -141 -92 -14 -6 -62 -13 -105 -16 -73 -5 -77
-5 -46 7 19 7 41 23 49 35 16 24 9 27 -34 13 -29 -10 -164 -23 -164 -16 0 1
15 12 33 23 17 12 45 31 62 44 16 12 26 17 22 11 -12 -19 65 19 91 45 16 16
18 22 7 22 -8 0 -15 -4 -15 -8 0 -5 -16 -16 -36 -25 -30 -15 -38 -15 -55 -4
-25 18 -9 32 41 36 35 2 126 29 145 43 6 4 39 31 74 59 l64 52 -6 -44 c-9 -59
-57 -97 -232 -184 -38 -19 -44 -25 -26 -25 13 0 50 14 83 30 33 17 63 28 68
25 9 -6 70 21 70 30 0 6 -32 -6 -47 -18 -7 -5 -13 -6 -13 -1 0 5 28 27 63 49
34 21 85 59 112 84 l50 45 -47 -50 c-54 -56 -62 -75 -20 -46 15 10 33 17 40
15 7 -3 24 4 36 16 12 12 26 18 30 14 4 -5 6 -3 4 2 -3 11 42 88 48 82 2 -2
-14 -43 -36 -91z m-5164 -23 c-1 -1 -22 4 -46 12 -25 7 -39 14 -31 14 11 1 11
4 0 17 -7 8 8 3 33 -13 25 -15 45 -29 44 -30z m-729 5 c-3 -7 -5 -2 -5 12 0
14 2 19 5 13 2 -7 2 -19 0 -25z m3758 2 c-11 -5 -36 -8 -55 -8 l-35 1 35 7
c19 4 44 8 55 8 l20 1 -20 -9z m-3075 -30 c0 -5 -2 -10 -4 -10 -3 0 -8 5 -11
10 -3 6 -1 10 4 10 6 0 11 -4 11 -10z m4140 -120 c0 -44 14 -72 72 -139 21
-24 35 -47 32 -52 -9 -15 -88 -10 -111 6 -39 27 -69 162 -57 254 l7 51 28 -40
c21 -28 29 -52 29 -80z m517 88 c15 -7 29 -13 31 -14 2 -1 -1 -12 -7 -23 -11
-20 -52 -35 -126 -46 -22 -3 -45 -8 -52 -10 -20 -7 -111 22 -139 44 -31 24
-15 29 20 6 13 -9 54 -17 92 -20 38 -2 60 -2 50 1 -15 5 -7 13 40 39 32 18 60
33 61 34 1 0 15 -4 30 -11z m-5058 -52 c10 -12 9 -14 -9 -9 -11 3 -25 14 -31
25 -9 17 -8 18 9 9 10 -5 24 -17 31 -25z m101 -9 c0 -8 -14 -14 -35 -15 -44
-3 -46 15 -2 21 17 2 33 5 35 5 1 1 2 -4 2 -11z m4555 -47 c3 -5 2 -10 -4 -10
-5 0 -13 5 -16 10 -3 6 -2 10 4 10 5 0 13 -4 16 -10z m-5051 -18 c10 -30 60
-71 112 -93 42 -16 44 -18 14 -13 -19 4 -44 10 -56 14 -28 11 -80 64 -87 89
-6 26 9 28 17 3z m5135 7 c39 -14 42 -34 4 -24 -16 4 -33 8 -40 8 -7 0 -10 4
-7 8 2 4 -2 10 -8 12 -26 11 19 7 51 -4z m10 -135 c-16 -20 -39 -17 -39 5 0
14 6 17 25 13 20 -3 23 -7 14 -18z m1051 -33 c0 -5 -13 -14 -30 -21 -16 -7
-30 -16 -30 -19 0 -9 -73 -45 -124 -61 -88 -28 -313 -8 -286 25 6 7 36 22 68
34 47 17 71 19 125 14 37 -3 67 -9 67 -13 0 -5 19 -3 43 2 23 6 51 12 62 13
15 3 83 25 103 34 1 0 2 -3 2 -8z m-883 -47 c3 -8 12 -13 19 -10 7 3 40 -18
73 -47 70 -60 66 -66 -40 -63 -74 2 -123 21 -140 53 -11 20 -9 25 12 43 13 11
29 24 34 29 15 15 35 13 42 -5z m-4536 -136 c0 -7 2 -20 3 -28 8 -39 16 -133
12 -129 -10 9 -33 169 -25 169 5 0 9 -6 10 -12z m434 -20 c89 -30 99 -36 114
-70 9 -21 16 -26 21 -17 5 6 7 -7 6 -29 -1 -26 2 -42 9 -42 6 0 26 -20 44 -45
18 -25 36 -45 40 -45 11 0 36 -79 27 -87 -3 -4 -48 -2 -99 4 -53 6 -119 7
-157 2 -36 -4 -87 -10 -115 -14 l-50 -6 -26 43 c-34 54 -51 137 -48 230 l2 73
40 16 c49 19 109 15 192 -13z m5165 3 l45 -7 -52 -8 c-29 -4 -53 -11 -53 -16
0 -11 86 -23 110 -15 25 8 25 1 -2 -38 -32 -47 -60 -68 -75 -55 -7 6 -13 6
-13 1 0 -5 -21 -10 -47 -11 -26 -1 -51 -6 -57 -12 -5 -5 -46 -10 -90 -11 -55
0 -74 -3 -60 -9 18 -7 96 -93 85 -95 -2 0 3 -16 11 -35 8 -19 20 -58 27 -87
10 -41 23 -61 62 -98 34 -32 43 -44 28 -40 -13 4 -47 7 -77 6 -62 -1 -71 5
-114 87 -17 31 -36 64 -43 72 -7 8 -15 32 -18 53 -3 21 -17 63 -31 93 -40 88
-23 132 91 221 26 21 35 23 128 18 55 -3 120 -9 145 -14z m-5513 -7 c-3 -3
-12 -4 -19 -1 -8 3 -5 6 6 6 11 1 17 -2 13 -5z m102 -36 c-2 -28 -2 -29 -6 -8
-3 14 -10 28 -17 32 -7 5 -5 8 7 8 13 0 17 -8 16 -32z m416 -18 l20 -9 -20 0
c-11 0 -27 4 -35 9 -13 9 -13 10 0 9 8 0 24 -4 35 -9z m612 -32 c-3 -8 -6 -5
-6 6 -1 11 2 17 5 13 3 -3 4 -12 1 -19z m-500 -4 c-3 -3 -12 -4 -19 -1 -8 3
-5 6 6 6 11 1 17 -2 13 -5z m-1009 -99 l0 -40 -9 40 c-4 22 -8 54 -7 70 l0 30
8 -30 c4 -16 8 -48 8 -70z m1059 89 c-3 -3 -12 -4 -19 -1 -8 3 -5 6 6 6 11 1
17 -2 13 -5z m-1090 -26 c-3 -8 -6 -5 -6 6 -1 11 2 17 5 13 3 -3 4 -12 1 -19z
m1539 -42 c-2 -6 -5 -3 -5 7 -1 9 -5 17 -11 17 -5 0 -10 10 -10 23 0 20 2 19
15 -7 9 -16 14 -34 11 -40z m-393 47 c-7 -2 -19 -2 -25 0 -7 3 -2 5 12 5 14 0
19 -2 13 -5z m1762 -23 c-3 -5 -12 -10 -18 -10 -7 0 -6 4 3 10 19 12 23 12 15
0z m-1645 -14 c25 -8 36 -15 25 -15 -21 1 -98 27 -80 28 6 0 30 -6 55 -13z
m1667 -59 c-9 -29 -18 -61 -20 -72 -4 -15 -5 -14 -6 6 0 14 3 39 8 55 5 16 13
43 16 59 4 17 10 24 12 17 3 -8 -2 -37 -10 -65z m-1588 24 c10 -7 7 -9 -12 -8
-15 1 -27 5 -27 10 0 10 22 9 39 -2z m82 -28 c13 -16 12 -17 -3 -4 -10 7 -18
15 -18 17 0 8 8 3 21 -13z m-1423 -113 l-1 -35 -13 30 c-7 17 -13 53 -13 80
l0 50 14 -45 c8 -24 14 -60 13 -80z m101 70 c1 -13 0 -13 -9 0 -5 8 -9 24 -9
35 l0 20 9 -20 c5 -11 9 -27 9 -35z m432 -4 c5 -6 9 -15 9 -20 0 -6 -7 -2 -15
8 -8 11 -14 31 -14 45 l2 26 4 -25 c3 -14 9 -29 14 -34z m2232 47 c-7 -2 -19
-2 -25 0 -7 3 -2 5 12 5 14 0 19 -2 13 -5z m-1109 -25 c-3 -5 -12 -4 -20 3
-19 16 -18 18 6 12 11 -3 17 -9 14 -15z m-1585 -58 c0 -9 -6 -4 -14 10 -8 14
-14 34 -14 45 1 15 4 13 14 -10 8 -16 14 -37 14 -45z m1476 60 c3 -5 1 -10 -4
-10 -6 0 -11 5 -11 10 0 6 2 10 4 10 3 0 8 -4 11 -10z m1232 -6 c-3 -3 -12 -4
-19 -1 -8 3 -5 6 6 6 11 1 17 -2 13 -5z m1258 -24 c-10 -11 -26 -22 -36 -25
-11 -4 -17 -10 -14 -15 3 -5 -11 -4 -30 1 -20 6 -46 8 -58 6 -16 -3 -14 -5 8
-6 18 0 38 -10 49 -22 18 -21 18 -22 -15 -48 -131 -105 -137 -108 -217 -115
-41 -3 -95 -6 -119 -6 l-43 0 40 40 c22 22 40 47 40 55 0 25 -16 17 -44 -23
-63 -91 -192 -118 -266 -55 -17 14 -34 22 -38 18 -4 -3 9 -19 28 -35 l34 -28
-44 -6 c-25 -3 -61 -8 -80 -11 -118 -18 -119 -18 -126 0 -4 10 -2 26 5 36 6
11 7 19 2 19 -5 0 -13 -13 -19 -28 -8 -24 -15 -28 -53 -30 -23 -2 -46 -5 -51
-8 -4 -3 -45 1 -90 8 -46 7 -88 12 -95 12 -7 -1 -15 8 -19 20 -4 11 -11 24
-16 27 -5 3 12 12 39 19 26 8 50 16 53 19 16 19 63 40 110 49 76 15 182 24
150 13 -24 -9 -25 -9 -2 -10 12 -1 25 6 28 14 4 10 19 15 43 15 27 0 32 -3 21
-10 -13 -8 -13 -10 1 -10 9 0 22 -11 29 -25 22 -41 38 -31 33 19 -5 43 -5 43
28 49 20 3 43 -1 55 -8 12 -8 32 -11 44 -8 16 4 21 3 16 -5 -5 -8 5 -12 32
-12 29 0 45 7 68 29 39 38 109 48 109 16 0 -18 6 -21 34 -16 5 0 12 9 15 19 4
11 18 18 38 19 18 2 44 7 58 12 14 5 66 12 117 15 54 3 104 11 120 20 39 21
49 20 28 -4z m-2353 -22 c-7 -7 -12 -8 -12 -2 0 14 12 26 19 19 2 -3 -1 -11
-7 -17z m958 12 c0 -5 -7 -10 -16 -10 -8 0 -12 5 -9 10 3 6 10 10 16 10 5 0 9
-4 9 -10z m-2261 -175 c-1 -77 -3 -133 -5 -125 -7 35 -10 289 -2 278 4 -7 7
-76 7 -153z m1117 144 c19 -22 19 -22 -3 -8 -13 8 -23 17 -23 21 0 12 6 9 26
-13z m235 -9 c5 0 9 -5 9 -11 0 -8 -5 -8 -15 1 -8 7 -14 20 -14 29 1 13 2 13
6 -1 2 -10 9 -18 14 -18z m929 10 c0 -5 -2 -10 -4 -10 -3 0 -8 5 -11 10 -3 6
-1 10 4 10 6 0 11 -4 11 -10z m-2620 -35 c0 -5 -5 -3 -10 5 -5 8 -10 20 -10
25 0 6 5 3 10 -5 5 -8 10 -19 10 -25z m531 18 c13 -16 12 -17 -3 -4 -10 7 -18
15 -18 17 0 8 8 3 21 -13z m-41 -3 c0 -5 -4 -10 -10 -10 -5 0 -10 5 -10 10 0
6 5 10 10 10 6 0 10 -4 10 -10z m-133 -22 c-3 -8 -6 -5 -6 6 -1 11 2 17 5 13
3 -3 4 -12 1 -19z m736 15 c-7 -2 -19 -2 -25 0 -7 3 -2 5 12 5 14 0 19 -2 13
-5z m-573 -7 c0 -3 -4 -8 -10 -11 -5 -3 -10 -1 -10 4 0 6 5 11 10 11 6 0 10
-2 10 -4z m653 -3 c-7 -2 -19 -2 -25 0 -7 3 -2 5 12 5 14 0 19 -2 13 -5z m94
-20 c-12 -12 -19 -13 -33 -4 -17 11 -16 11 5 5 19 -5 23 -3 18 9 -4 11 -2 14
9 10 14 -5 14 -7 1 -20z m256 -12 c-4 -4 -11 -10 -14 -14 -4 -5 -6 3 -5 16 1
20 4 23 14 15 7 -6 9 -14 5 -17z m202 0 c3 -5 1 -12 -4 -15 -5 -3 -11 1 -15 9
-6 16 9 21 19 6z m-1165 -11 c-23 -7 -23 -8 -3 -9 12 -1 23 -6 25 -13 3 -7 10
-8 17 -4 10 7 11 10 1 16 -20 12 133 23 203 15 65 -7 77 -15 77 -52 0 -37 27
-27 34 12 7 33 9 35 46 35 33 0 40 -3 40 -20 0 -16 7 -20 38 -21 31 -2 32 -3
9 -6 -34 -5 -31 -23 7 -41 34 -17 78 -2 94 32 8 18 16 22 36 19 22 -4 26 -11
26 -38 0 -19 -8 -39 -20 -50 -16 -14 -17 -21 -8 -39 6 -11 10 -23 9 -26 -1 -2
2 -6 8 -8 6 -2 11 6 11 17 0 12 5 21 11 21 5 0 7 -5 3 -12 -4 -7 -3 -8 4 -4 7
4 12 16 12 27 0 13 4 18 12 13 8 -5 9 -2 5 9 -3 10 -2 17 4 17 6 0 8 4 5 9 -3
4 0 15 7 24 11 15 18 15 82 -3 38 -10 72 -17 75 -15 8 5 21 -5 39 -28 12 -15
11 -20 -10 -38 -22 -19 -24 -19 -30 -2 -6 14 -8 14 -9 3 -2 -8 -2 -20 -1 -27
2 -15 -24 -21 -105 -27 -34 -2 -67 -7 -75 -11 -7 -5 -14 -4 -17 3 -2 7 -8 12
-13 12 -4 0 -6 -7 -3 -15 4 -8 4 -15 1 -15 -2 0 -28 -5 -57 -10 -59 -11 -325
2 -390 20 -51 14 -115 62 -146 111 -16 27 -29 38 -33 30 -5 -7 -12 -3 -20 13
-8 13 -10 30 -6 37 5 8 4 10 -3 5 -7 -4 -12 -1 -12 9 0 14 -8 16 -40 13 -48
-4 -39 9 10 15 61 7 78 6 50 -3z m780 1 c0 -4 -11 -6 -25 -3 -14 2 -25 6 -25
8 0 2 11 4 25 4 14 0 25 -4 25 -9z m249 -40 c-1 -14 -2 -14 -6 1 -2 9 -13 20
-24 23 -10 4 -19 11 -19 16 0 5 11 2 25 -7 14 -9 24 -24 24 -33z m-165 8 c-4
-8 1 -9 17 -5 l24 6 -23 -12 c-24 -12 -38 -6 -27 11 3 6 8 11 11 11 3 0 2 -5
-2 -11z m1316 1 c-8 -5 -19 -10 -25 -10 -5 0 -3 5 5 10 8 5 20 10 25 10 6 0 3
-5 -5 -10z m-970 -21 c0 -5 -4 -9 -10 -9 -5 0 -10 7 -10 16 0 8 5 12 10 9 6
-3 10 -10 10 -16z m920 1 c-24 -15 -36 -11 -14 4 10 8 21 12 24 10 2 -3 -2 -9
-10 -14z m-1200 0 c0 -5 -2 -10 -4 -10 -3 0 -8 5 -11 10 -3 6 -1 10 4 10 6 0
11 -4 11 -10z m-4 -32 l19 -23 -25 20 c-14 11 -27 21 -29 22 -2 2 0 3 6 3 5 0
18 -10 29 -22z m310 -85 c-5 -6 -26 65 -25 87 0 8 7 -7 15 -34 9 -26 13 -50
10 -53z m854 73 c0 -2 -7 -7 -16 -10 -8 -3 -12 -2 -9 4 6 10 25 14 25 6z
m-1089 -33 c1 -5 3 -17 5 -28 1 -11 5 -31 9 -45 l6 -25 -11 24 c-6 14 -16 32
-23 40 -9 12 -9 13 1 7 15 -9 16 6 0 22 -9 9 -9 12 0 12 7 0 13 -3 13 -7z
m896 -27 c-1 -19 -6 -31 -10 -27 -7 7 0 61 8 61 2 0 3 -15 2 -34z m-942 -27
c9 -17 15 -33 13 -35 -3 -2 -12 12 -21 31 -21 43 -13 47 8 4z m4239 22 c7 -11
-14 -20 -31 -13 -7 2 -13 8 -13 13 0 12 37 12 44 0z m84 -16 c-22 -25 -52 -33
-62 -16 -3 5 9 16 27 25 47 23 60 20 35 -9z m-4058 5 c0 -5 -4 -10 -10 -10 -5
0 -10 5 -10 10 0 6 5 10 10 10 6 0 10 -4 10 -10z m943 -17 c-7 -2 -19 -2 -25
0 -7 3 -2 5 12 5 14 0 19 -2 13 -5z m84 1 c-3 -3 -12 -4 -19 -1 -8 3 -5 6 6 6
11 1 17 -2 13 -5z m-264 -11 c-7 -2 -21 -2 -30 0 -10 3 -4 5 12 5 17 0 24 -2
18 -5z m135 -10 c-10 -2 -26 -2 -35 0 -10 3 -2 5 17 5 19 0 27 -2 18 -5z
m1072 -9 c47 -3 92 -7 100 -11 20 -8 -114 -45 -165 -47 -102 -2 -594 8 -547
11 30 2 50 8 47 14 -4 5 7 9 23 9 16 0 44 3 61 6 36 7 44 -12 9 -20 -13 -2 13
-2 57 1 71 4 121 13 245 43 19 4 46 6 60 3 14 -2 63 -7 110 -9z m-1141 2 c-11
-10 -109 -16 -109 -6 0 6 24 10 57 10 31 0 54 -2 52 -4z m829 -3 c-10 -2 -26
-2 -35 0 -10 3 -2 5 17 5 19 0 27 -2 18 -5z m-1864 -29 c5 -14 4 -15 -9 -4
-17 14 -19 20 -6 20 5 0 12 -7 15 -16z m2326 1 c0 -8 -4 -15 -10 -15 -5 0 -7
7 -4 15 4 8 8 15 10 15 2 0 4 -7 4 -15z m-2399 -18 c-10 -9 -11 -8 -5 6 3 10
9 15 12 12 3 -3 0 -11 -7 -18z m39 13 c0 -5 -5 -10 -11 -10 -5 0 -7 5 -4 10 3
6 8 10 11 10 2 0 4 -4 4 -10z m215 -20 c-3 -5 -11 -10 -16 -10 -6 0 -7 5 -4
10 3 6 11 10 16 10 6 0 7 -4 4 -10z m70 0 c-3 -5 -12 -10 -18 -10 -7 0 -6 4 3
10 19 12 23 12 15 0z m-345 -10 c0 -5 -4 -10 -10 -10 -5 0 -10 5 -10 10 0 6 5
10 10 10 6 0 10 -4 10 -10z m1540 2 c0 -9 -259 -36 -267 -28 -2 2 31 7 74 11
64 6 136 16 186 24 4 0 7 -3 7 -7z m-1240 -6 c0 -2 -7 -7 -16 -10 -8 -3 -12
-2 -9 4 6 10 25 14 25 6z m1470 -6 c-8 -5 -28 -9 -45 -9 -29 1 -29 1 -5 9 14
4 34 8 45 9 16 1 17 -1 5 -9z m380 -6 c0 -2 -7 -4 -15 -4 -8 0 -15 4 -15 10 0
5 7 7 15 4 8 -4 15 -8 15 -10z m-2121 -39 c0 -5 -4 -3 -9 5 -5 8 -9 22 -9 30
0 16 17 -16 18 -35z m214 38 c3 -5 -11 -18 -29 -30 -19 -12 -34 -19 -34 -14 0
4 11 14 25 21 13 7 22 17 19 22 -3 4 -1 8 5 8 5 0 12 -3 14 -7z m1680 0 c-13
-2 -33 -2 -45 0 -13 2 -3 4 22 4 25 0 35 -2 23 -4z m334 1 c-3 -3 -12 -4 -19
-1 -8 3 -5 6 6 6 11 1 17 -2 13 -5z m-1052 -24 c-11 -5 -42 -8 -70 -8 l-50 1
50 7 c28 4 59 7 70 8 l20 1 -20 -9z m196 -1 c-16 -6 -28 -6 -35 1 -7 7 1 10
25 9 32 0 33 -1 10 -10z m-98 -6 c-7 -2 -19 -2 -25 0 -7 3 -2 5 12 5 14 0 19
-2 13 -5z m930 0 c-7 -2 -19 -2 -25 0 -7 3 -2 5 12 5 14 0 19 -2 13 -5z
m-1176 -9 c-3 -3 -12 -4 -19 -1 -8 3 -5 6 6 6 11 1 17 -2 13 -5z m-958 -51 c2
-2 2 -5 -1 -8 -2 -3 -18 10 -34 28 l-29 32 30 -25 c17 -14 32 -26 34 -27z
m941 36 c19 -7 17 -7 -13 -3 -30 4 -42 1 -53 -13 -13 -16 -14 -16 -8 0 3 9 1
17 -5 17 -6 0 -11 -4 -11 -8 0 -5 -19 -24 -42 -42 l-43 -33 45 46 c47 48 75
56 130 36z m93 4 c-7 -2 -19 -2 -25 0 -7 3 -2 5 12 5 14 0 19 -2 13 -5z m1084
-25 c-3 -7 -5 -2 -5 12 0 14 2 19 5 13 2 -7 2 -19 0 -25z m-2062 2 c-3 -5 -16
-15 -28 -21 -21 -10 -21 -9 2 10 25 23 36 27 26 11z m404 -42 c72 -38 161
-119 161 -149 0 -11 3 -18 8 -16 4 3 8 -8 9 -25 2 -19 -2 -28 -10 -26 -7 2
-85 21 -174 43 -128 31 -162 43 -159 55 3 8 7 45 11 83 l7 67 41 0 c28 0 64
-11 106 -32z m-211 0 c-2 -6 -10 -13 -16 -14 -9 -2 -9 -1 -1 3 8 4 7 8 -2 14
-11 7 -10 9 4 9 10 0 17 -5 15 -12z m1929 -70 c-2 -13 -4 -3 -4 22 0 25 2 35
4 23 2 -13 2 -33 0 -45z m-2017 38 c0 -2 -8 -10 -17 -17 -16 -13 -17 -12 -4 4
13 16 21 21 21 13z m-260 -70 c0 -3 -13 6 -30 21 -16 14 -30 30 -30 35 0 4 14
-5 30 -20 17 -16 30 -32 30 -36z m160 -26 c-12 -16 -23 -30 -26 -30 -2 0 2 14
11 30 9 17 20 30 26 30 6 0 1 -13 -11 -30z m672 -8 c14 -21 38 -62 53 -91 l27
-54 -39 8 c-49 9 -55 14 -98 92 -28 51 -33 68 -23 74 29 19 55 9 80 -29z
m-492 10 c0 -4 -18 -13 -40 -18 -46 -13 -44 1 3 15 18 5 33 10 35 10 1 1 2 -3
2 -7z m-345 -52 c-4 -12 -9 -19 -12 -17 -3 3 -2 15 2 27 4 12 9 19 12 17 3 -3
2 -15 -2 -27z m105 11 c0 -27 -21 -84 -39 -105 -17 -19 -70 -50 -76 -44 -3 3
15 71 41 156 2 6 19 12 39 12 27 0 35 -4 35 -19z m2210 -5 c0 -3 -4 -8 -10
-11 -5 -3 -10 -1 -10 4 0 6 5 11 10 11 6 0 10 -2 10 -4z m-2121 -16 c-6 -5
-18 -6 -26 -3 -19 8 -16 11 13 11 17 0 22 -3 13 -8z m-39 -15 c14 -16 10 -18
-14 -9 -9 3 -16 10 -16 15 0 14 16 11 30 -6z m2460 -5 c0 -5 -8 -10 -17 -10
-15 0 -16 2 -3 10 19 12 20 12 20 0z m-2480 -15 c0 -1 -6 -7 -13 -13 -10 -8
-13 -6 -13 7 0 11 6 17 13 14 7 -3 13 -6 13 -8z m-154 -31 c-4 -9 -9 -15 -11
-12 -3 3 -3 13 1 22 4 9 9 15 11 12 3 -3 3 -13 -1 -22z m327 -66 c-8 -46 -13
-48 -13 -5 0 21 4 37 10 37 5 0 7 -14 3 -32z m1918 -19 c-5 -13 -10 -19 -10
-12 -1 15 10 45 15 40 3 -2 0 -15 -5 -28z m-2091 -39 c0 -5 -5 -10 -11 -10 -5
0 -7 5 -4 10 3 6 8 10 11 10 2 0 4 -4 4 -10z m695 -10 c3 -6 -1 -7 -9 -4 -18
7 -21 14 -7 14 6 0 13 -4 16 -10z m-735 -4 c0 -3 -4 -8 -10 -11 -5 -3 -10 -1
-10 4 0 6 5 11 10 11 6 0 10 -2 10 -4z m2100 -10 c0 -2 -7 -7 -16 -10 -8 -3
-12 -2 -9 4 6 10 25 14 25 6z m341 -37 c-6 -16 -10 -18 -10 -7 -1 22 12 55 16
42 2 -6 -1 -22 -6 -35z m-2254 -11 c-3 -8 -6 -5 -6 6 -1 11 2 17 5 13 3 -3 4
-12 1 -19z m628 11 c11 -16 1 -19 -13 -3 -7 8 -8 14 -3 14 5 0 13 -5 16 -11z
m1255 -14 c-7 -9 -15 -13 -17 -11 -7 7 7 26 19 26 6 0 6 -6 -2 -15z m-1214
-20 c9 -8 11 -15 6 -15 -5 0 -15 7 -22 15 -7 8 -9 15 -6 15 4 0 14 -7 22 -15z
m-679 -37 c-3 -8 -6 -5 -6 6 -1 11 2 17 5 13 3 -3 4 -12 1 -19z m769 -55 c-6
-6 -56 38 -56 49 0 4 14 -4 30 -19 17 -14 28 -28 26 -30z m-941 -3 c3 -6 -1
-7 -9 -4 -18 7 -21 14 -7 14 6 0 13 -4 16 -10z m160 -10 c-3 -5 -10 -29 -14
-52 -8 -41 -9 -41 -10 -10 -1 31 13 72 25 72 3 0 2 -4 -1 -10z m840 -40 c10
-11 16 -20 13 -20 -3 0 -13 9 -23 20 -10 11 -16 20 -13 20 3 0 13 -9 23 -20z
m2309 4 c15 -6 15 -7 0 -19 -16 -11 -16 -12 0 -18 10 -4 15 -3 11 3 -3 6 1 10
9 10 24 0 38 -34 26 -64 -6 -16 -6 -26 0 -26 16 0 -1 -29 -19 -35 -10 -3 -47
-9 -83 -13 -60 -7 -65 -7 -60 10 2 10 11 18 18 18 8 0 14 5 14 10 0 16 -12 12
-42 -17 -15 -15 -28 -22 -28 -17 0 6 11 21 25 34 14 13 23 30 21 37 -3 6 4 15
15 18 18 6 24 18 19 40 -2 11 29 35 46 35 7 0 20 -3 28 -6z m-3174 -82 c0 -15
-2 -15 -10 -2 -13 20 -13 33 0 25 6 -3 10 -14 10 -23z m2211 -19 c-8 -15 -10
-15 -11 -2 0 17 10 32 18 25 2 -3 -1 -13 -7 -23z m-2221 -24 c0 -14 -17 -10
-23 5 -4 10 -1 13 9 9 7 -3 14 -9 14 -14z m-1206 -44 c4 -19 3 -25 -3 -15 -4
8 -11 29 -15 45 -4 19 -3 25 3 15 4 -8 11 -28 15 -45z m3412 14 c10 -17 -23
-46 -38 -31 -8 8 -8 15 2 27 15 18 26 19 36 4z m-3384 -24 c3 -13 1 -22 -3
-19 -9 5 -13 44 -5 44 2 0 6 -11 8 -25z m1160 0 c-2 -14 -6 -25 -8 -25 -2 0
-4 11 -4 25 0 14 4 25 9 25 4 0 6 -11 3 -25z m-1124 -41 c-3 -14 -5 -12 -10 9
-3 19 -2 25 4 19 6 -6 8 -18 6 -28z m4072 15 c0 -5 -5 -7 -10 -4 -6 4 -21 -18
-35 -49 -14 -31 -30 -56 -37 -55 -10 0 -10 2 0 6 6 2 12 13 12 23 0 10 5 22
10 25 6 3 10 14 10 24 0 9 5 22 12 29 15 15 38 16 38 1z m-761 -8 c17 -11 9
-36 -17 -50 -24 -13 -33 3 -21 37 9 24 16 26 38 13z m-3362 -23 c-3 -8 -6 -5
-6 6 -1 11 2 17 5 13 3 -3 4 -12 1 -19z m1153 -23 c-16 -47 -23 -40 -9 9 6 21
13 36 16 33 3 -3 0 -22 -7 -42z m3013 38 c-7 -2 -19 -2 -25 0 -7 3 -2 5 12 5
14 0 19 -2 13 -5z m124 -10 c-20 -2 -52 -2 -70 0 -17 2 0 4 38 4 39 0 53 -2
32 -4z m100 1 c-3 -3 -12 -4 -19 -1 -8 3 -5 6 6 6 11 1 17 -2 13 -5z m-260
-10 c-3 -3 -12 -4 -19 -1 -8 3 -5 6 6 6 11 1 17 -2 13 -5z m-4093 -19 c-4 -8
-8 -15 -10 -15 -2 0 -4 7 -4 15 0 8 4 15 10 15 5 0 7 -7 4 -15z m-27 -27 c-3
-7 -5 -2 -5 12 0 14 2 19 5 13 2 -7 2 -19 0 -25z m4216 25 c-7 -2 -19 -2 -25
0 -7 3 -2 5 12 5 14 0 19 -2 13 -5z m164 -155 c-2 -29 -3 -8 -3 47 0 55 1 79
3 53 2 -26 2 -71 0 -100z m-366 61 c-5 -13 -10 -19 -10 -12 -1 15 10 45 15 40
3 -2 0 -15 -5 -28z m-3954 -1 c-3 -8 -6 -5 -6 6 -1 11 2 17 5 13 3 -3 4 -12 1
-19z m4559 -18 c-16 -83 35 -257 105 -355 20 -29 21 -29 15 -5 -3 14 -11 48
-19 75 -20 68 -31 175 -20 175 6 0 16 -18 23 -40 7 -23 16 -36 20 -30 3 5 14
-8 24 -30 10 -22 21 -38 26 -35 11 7 58 -58 74 -102 59 -163 172 -273 266
-259 25 4 30 2 18 -4 -9 -6 -39 -11 -67 -13 -33 -1 -51 -6 -51 -15 0 -7 6 -15
14 -18 8 -3 17 -12 20 -20 5 -12 2 -12 -15 -3 -11 6 -23 8 -26 5 -6 -5 43 -27
121 -54 65 -21 64 -21 43 -37 -16 -12 -16 -13 8 -19 14 -4 25 -13 25 -21 0
-24 -136 -20 -205 6 -31 12 -59 19 -62 16 -10 -10 86 -49 139 -57 52 -7 52 -8
13 -10 -22 -1 -53 -1 -69 0 -18 1 -26 -2 -22 -9 4 -6 20 -11 36 -11 16 0 32
-5 36 -11 11 -19 -83 -3 -156 26 -35 14 -68 25 -72 25 -22 0 8 -22 65 -50 54
-26 58 -29 32 -29 -75 -1 -256 155 -309 266 -92 191 -99 213 -104 353 -4 120
-3 129 27 214 17 49 34 92 37 97 11 18 16 8 10 -21z m-4576 -11 c0 -18 -18 -9
-23 12 -4 16 -3 18 9 8 8 -6 14 -15 14 -20z m1756 6 c13 -20 14 -30 4 -59 -14
-45 -42 -76 -68 -76 -11 0 -29 -11 -40 -25 -20 -25 -45 -31 -76 -19 -9 3 -16
10 -16 16 0 5 4 7 8 4 14 -8 105 39 132 68 18 20 25 38 25 72 0 50 7 55 31 19z
m2201 -37 c-3 -7 -5 -2 -5 12 0 14 2 19 5 13 2 -7 2 -19 0 -25z m-3907 12 c0
-5 -2 -10 -4 -10 -3 0 -8 5 -11 10 -3 6 -1 10 4 10 6 0 11 -4 11 -10z m4140
-40 c37 -27 73 -50 79 -50 6 0 11 -3 11 -7 0 -5 14 -16 30 -25 21 -12 30 -14
29 -5 -5 42 5 54 11 12 44 -297 129 -547 233 -680 95 -124 147 -198 142 -203
-3 -4 -74 -30 -158 -58 -316 -108 -429 -156 -577 -243 -63 -38 -160 -94 -215
-126 -55 -32 -135 -82 -177 -111 -43 -30 -81 -54 -85 -54 -4 0 -40 -31 -79
-68 -39 -37 -83 -78 -98 -92 l-28 -25 17 40 c10 22 39 92 66 156 26 64 59 138
73 166 14 28 39 89 55 136 16 47 36 101 45 119 8 18 24 83 36 143 22 118 37
181 50 205 4 9 11 35 15 59 4 24 14 60 22 79 8 19 12 47 8 61 -4 19 -3 22 4
12 8 -12 11 -9 16 15 4 16 23 63 43 104 20 41 37 90 38 110 1 38 22 98 23 68
1 -9 -3 -20 -9 -23 -5 -3 -10 -10 -10 -16 0 -5 5 -9 10 -9 6 0 10 6 10 14 0 8
34 64 75 126 55 83 74 119 70 134 -5 16 -4 17 4 7 8 -12 16 -10 48 14 21 16
47 37 57 47 29 27 42 23 116 -32z m10 40 c0 -5 -4 -10 -10 -10 -5 0 -10 5 -10
10 0 6 5 10 10 10 6 0 10 -4 10 -10z m-4193 -42 c-3 -7 -5 -2 -5 12 0 14 2 19
5 13 2 -7 2 -19 0 -25z m3937 -5 c-11 -35 -27 -63 -36 -63 -5 0 -2 10 6 22 9
12 16 30 16 40 0 10 4 18 10 18 5 0 7 -8 4 -17z m306 -5 c0 -5 -9 -4 -20 2
-11 6 -20 12 -20 14 0 2 9 2 20 -1 11 -3 20 -9 20 -15z m67 -10 c-3 -7 -5 -2
-5 12 0 14 2 19 5 13 2 -7 2 -19 0 -25z m-4287 -19 c0 -11 -4 -17 -10 -14 -5
3 -10 13 -10 21 0 8 5 14 10 14 6 0 10 -9 10 -21z m1370 6 c32 -18 25 -18 -25
0 -22 8 -31 14 -20 14 11 0 31 -6 45 -14z m77 -1 c-3 -3 -12 -4 -19 -1 -8 3
-5 6 6 6 11 1 17 -2 13 -5z m80 0 c-3 -3 -12 -4 -19 -1 -8 3 -5 6 6 6 11 1 17
-2 13 -5z m78 -4 c-3 -5 -14 -10 -23 -10 -15 0 -15 2 -2 10 20 13 33 13 25 0z
m-40 -20 c8 -13 -15 -13 -35 0 -12 8 -11 10 7 10 12 0 25 -4 28 -10z m-1541
-75 l6 -40 -15 45 c-16 50 -19 73 -6 50 5 -8 12 -33 15 -55z m1256 55 c0 -5
-4 -10 -9 -10 -6 0 -13 5 -16 10 -3 6 1 10 9 10 9 0 16 -4 16 -10z m205 0 c3
-5 1 -10 -4 -10 -6 0 -11 5 -11 10 0 6 2 10 4 10 3 0 8 -4 11 -10z m-105 -28
c3 -2 -12 -2 -33 2 -30 6 -37 4 -31 -5 4 -8 3 -10 -4 -5 -6 4 -9 13 -6 21 4
11 12 11 37 3 18 -6 34 -13 37 -16z m80 13 c0 -8 5 -15 11 -15 5 0 7 -5 4 -11
-5 -6 -12 -4 -21 8 -16 22 -18 33 -4 33 6 0 10 -7 10 -15z m290 7 c0 -4 -13
-16 -30 -25 -17 -10 -30 -13 -30 -8 0 6 5 11 11 11 5 0 7 4 4 10 -3 5 0 7 8 4
8 -3 18 -1 22 5 7 13 15 14 15 3z m2129 -9 c1 17 21 25 21 8 0 -11 -30 -36
-30 -25 0 5 -5 1 -11 -9 -5 -9 -7 -22 -4 -27 3 -6 1 -10 -4 -10 -6 0 -11 -5
-11 -11 0 -6 -7 -17 -15 -25 -20 -21 -19 -4 2 26 10 14 17 25 15 25 -1 0 3 15
10 33 10 27 14 29 20 15 6 -17 7 -17 7 0z m-2374 -23 c3 -5 1 -10 -4 -10 -6 0
-11 5 -11 10 0 6 2 10 4 10 3 0 8 -4 11 -10z m-1468 -82 c-3 -8 -6 -5 -6 6 -1
11 2 17 5 13 3 -3 4 -12 1 -19z m1663 -19 c0 -18 -2 -19 -15 -9 -8 7 -15 16
-15 21 0 5 7 9 15 9 9 0 15 -9 15 -21z m-1635 -9 c-3 -5 -1 -19 5 -30 6 -11 8
-20 6 -20 -10 0 -27 41 -21 50 3 6 8 10 11 10 3 0 2 -4 -1 -10z m3648 -15 c-3
-9 -8 -14 -10 -11 -3 3 -2 9 2 15 9 16 15 13 8 -4z m-1964 -45 c12 -18 13 -22
2 -19 -8 3 -21 16 -30 29 -12 18 -13 22 -2 19 8 -3 21 -16 30 -29z m1935 -4
c-3 -9 -10 -16 -15 -16 -6 0 -5 9 1 21 13 24 24 20 14 -5z m-3544 -11 c11 -13
10 -14 -4 -9 -9 3 -16 10 -16 15 0 13 6 11 20 -6z m-29 -29 c5 3 9 0 9 -6 0
-15 -23 -7 -26 8 -1 7 0 8 3 2 2 -5 9 -8 14 -4z m3549 7 c-1 -10 -26 -43 -33
-43 -3 0 0 11 6 25 11 23 27 34 27 18z m90 -8 c0 -8 -9 -24 -20 -35 -12 -12
-17 -26 -13 -36 4 -10 2 -15 -3 -11 -5 3 -19 -8 -29 -24 -11 -16 -24 -29 -28
-29 -4 0 3 15 17 33 15 19 26 37 26 41 0 7 43 76 48 76 1 0 2 -7 2 -15z
m-1844 -46 c9 -15 -23 -10 -35 5 -10 12 -8 13 9 9 11 -3 23 -9 26 -14z m-1720
-74 c18 -34 10 -26 -29 27 -15 20 -27 40 -27 45 1 11 37 -36 56 -72z m1808 23
c-8 -12 -49 8 -52 26 -3 14 -1 14 26 -1 17 -10 28 -21 26 -25z m1579 -22 c-14
-17 -24 -22 -34 -15 -11 7 -10 9 5 9 12 0 16 5 12 16 -3 8 -2 12 3 9 5 -3 13
0 16 6 4 5 9 8 12 5 3 -3 -3 -16 -14 -30z m128 -9 c-10 -9 -11 -8 -5 6 3 10 9
15 12 12 3 -3 0 -11 -7 -18z m-1556 3 c3 -5 -3 -10 -14 -10 -11 0 -23 5 -26
10 -3 6 3 10 14 10 11 0 23 -4 26 -10z m-1921 -46 c3 -8 2 -12 -4 -9 -6 3 -10
10 -10 16 0 14 7 11 14 -7z m3433 -6 c-3 -8 -6 -5 -6 6 -1 11 2 17 5 13 3 -3
4 -12 1 -19z m-17 -9 c0 -6 -4 -7 -10 -4 -5 3 -10 11 -10 16 0 6 5 7 10 4 6
-3 10 -11 10 -16z m0 -45 c0 -3 -7 -1 -15 6 -20 17 -32 5 -15 -15 7 -8 8 -15
2 -15 -16 0 -23 31 -11 46 9 11 13 11 25 -1 8 -7 14 -17 14 -21z m-3377 9 c-4
-11 -3 -14 5 -9 7 4 12 2 12 -5 0 -7 7 -21 17 -31 9 -10 11 -18 5 -18 -6 0
-22 15 -36 32 -18 23 -22 35 -13 40 17 11 17 10 10 -9z m3177 -28 c0 -2 -10
-10 -22 -16 -21 -11 -22 -11 -9 4 13 16 31 23 31 12z m-60 -20 c-7 -9 -15 -13
-19 -10 -3 3 1 10 9 15 21 14 24 12 10 -5z m262 -27 c-6 -6 -7 0 -4 19 5 21 7
23 10 9 2 -10 0 -22 -6 -28z m-88 10 c-5 -7 -9 -28 -9 -47 0 -22 -5 -36 -15
-38 -13 -4 -13 -3 0 6 12 8 12 13 -5 31 -16 18 -16 20 -2 14 10 -3 17 -1 17 5
0 6 -4 11 -10 11 -5 0 -2 9 7 20 18 21 30 20 17 -2z m-144 -23 c-13 -14 -26
-22 -29 -19 -3 3 5 14 19 24 34 27 38 25 10 -5z m-100 -19 c0 -2 -8 -10 -17
-17 -16 -13 -17 -12 -4 4 13 16 21 21 21 13z m199 -33 c-7 -7 -18 -12 -24 -9
-7 2 -19 -1 -26 -7 -11 -10 -11 -9 0 5 7 10 19 14 28 11 12 -5 15 -2 10 10 -4
11 -2 14 9 10 11 -4 12 -8 3 -20z m-263 -28 c-9 -9 -16 -13 -16 -8 0 12 22 34
28 28 2 -2 -3 -11 -12 -20z m39 -5 c-16 -16 -33 -30 -39 -30 -5 0 6 14 24 30
18 17 36 30 39 30 2 0 -8 -13 -24 -30z m60 20 c-3 -5 -11 -10 -16 -10 -6 0 -7
5 -4 10 3 6 11 10 16 10 6 0 7 -4 4 -10z m99 -32 c-6 -17 -74 -61 -82 -54 -3
3 -1 6 5 6 5 0 25 14 43 30 37 33 42 36 34 18z m-195 -62 c-13 -14 -26 -23
-28 -20 -6 6 30 44 42 44 5 0 -1 -11 -14 -24z m-114 -16 c-3 -5 -11 -10 -16
-10 -6 0 -7 5 -4 10 3 6 11 10 16 10 6 0 7 -4 4 -10z m245 -4 c-7 -7 -13 -7
-20 0 -6 6 -3 10 10 10 13 0 16 -4 10 -10z m-180 -18 c0 -6 -6 -5 -15 2 -8 7
-15 14 -15 16 0 2 7 1 15 -2 8 -4 15 -11 15 -16z m150 -3 c0 -8 -2 -15 -4 -15
-2 0 -6 7 -10 15 -3 8 -1 15 4 15 6 0 10 -7 10 -15z m-46 -26 c-10 -12 -39
-35 -64 -52 -25 -17 -49 -37 -53 -44 -4 -7 -12 -13 -18 -13 -12 0 -91 -51
-101 -65 -5 -6 -8 -6 -8 2 0 6 17 22 38 34 20 13 39 25 42 28 3 4 12 11 21 16
59 36 141 99 146 111 3 8 8 12 11 9 3 -2 -3 -14 -14 -26z m81 12 c-3 -6 -11
-11 -16 -11 -5 0 -4 6 3 14 14 16 24 13 13 -3z m-206 -4 c-2 -1 -13 -9 -24
-17 -19 -14 -19 -14 -6 3 7 9 18 17 24 17 6 0 8 -1 6 -3z m388 -39 c-3 -7 -5
-2 -5 12 0 14 2 19 5 13 2 -7 2 -19 0 -25z m-437 7 c0 -2 -15 -12 -32 -20
l-33 -16 25 20 c24 20 40 26 40 16z m-150 -30 c-7 -9 -15 -13 -19 -10 -3 3 1
10 9 15 21 14 24 12 10 -5z m577 -47 c-3 -7 -5 -2 -5 12 0 14 2 19 5 13 2 -7
2 -19 0 -25z m-527 11 c-27 -18 -90 -50 -90 -45 0 7 83 56 95 56 6 0 3 -5 -5
-11z m-125 -69 c-3 -5 -12 -10 -18 -10 -7 0 -6 4 3 10 19 12 23 12 15 0z m131
-35 c-11 -8 -26 -15 -33 -15 -7 0 -13 -4 -13 -10 0 -5 -5 -10 -12 -10 -15 0 1
17 34 35 32 18 47 18 24 0z m-191 -15 c-3 -5 -14 -10 -23 -9 -14 0 -13 2 3 9
27 11 27 11 20 0z m-100 -20 c-3 -5 -12 -10 -18 -10 -7 0 -6 4 3 10 19 12 23
12 15 0z m2 -46 c-21 -14 -41 -24 -43 -21 -6 5 56 45 71 46 5 1 -8 -11 -28
-25z m153 1 c-7 -8 -20 -15 -29 -15 -11 1 -8 5 9 15 32 18 35 18 20 0z m-62
-35 c-9 -6 -15 -18 -14 -27 2 -10 1 -12 -1 -5 -3 6 -9 12 -16 12 -6 0 -2 7 9
15 10 8 24 14 29 14 6 0 3 -4 -7 -9z m-154 -15 c-10 -8 -23 -15 -28 -15 -6 0
-1 7 10 15 10 8 23 15 28 15 6 0 1 -7 -10 -15z m-44 -25 c0 -5 -5 -10 -11 -10
-5 0 -7 5 -4 10 3 6 8 10 11 10 2 0 4 -4 4 -10z m-70 -10 c0 -5 -5 -10 -11
-10 -5 0 -7 5 -4 10 3 6 8 10 11 10 2 0 4 -4 4 -10z m210 -10 c8 -5 11 -12 7
-17 -5 -4 -12 -1 -16 6 -5 8 -14 10 -21 6 -9 -6 -9 -9 1 -16 8 -5 10 -9 4 -9
-5 0 -16 4 -24 9 -11 7 -10 11 5 20 23 13 25 13 44 1z m-190 -20 c-13 -11 -28
-20 -34 -20 -13 0 35 39 48 40 5 0 -1 -9 -14 -20z m856 -5 c-3 -20 -16 -31
-16 -13 0 13 8 28 16 28 1 0 1 -7 0 -15z m-26 -45 c5 -3 3 -16 -4 -29 -9 -15
-16 -20 -20 -12 -4 6 -2 11 4 11 7 0 9 14 6 38 -3 20 -3 28 1 17 3 -11 9 -22
13 -25z m-923 24 c-3 -3 -12 -4 -19 -1 -8 3 -5 6 6 6 11 1 17 -2 13 -5z m38
-12 c-3 -3 -11 0 -18 7 -9 10 -8 11 6 5 10 -3 15 -9 12 -12z m132 -7 c0 -8 -4
-12 -9 -9 -5 3 -6 10 -3 15 9 13 12 11 12 -6z m-157 -3 c0 -8 -61 -34 -67 -28
-3 3 55 35 65 36 1 0 2 -4 2 -8z m3970 -13 c0 -6 -17 -40 -37 -76 -21 -35 -44
-75 -51 -89 -7 -13 -17 -24 -21 -24 -5 0 14 45 41 100 46 90 68 120 68 89z
m-3835 -9 c3 -5 2 -10 -4 -10 -5 0 -13 5 -16 10 -3 6 -2 10 4 10 5 0 13 -4 16
-10z m3778 -40 c-7 -25 -19 -26 -26 -1 -3 15 -1 18 11 14 11 -5 13 -3 7 7 -5
8 -4 11 3 7 5 -4 8 -16 5 -27z m-3866 -7 c-4 -3 -1 -13 6 -21 10 -13 9 -14
-11 -3 -22 12 -22 31 0 31 6 0 8 -3 5 -7z m3760 -73 c-20 -33 -32 -60 -27 -60
5 0 23 25 40 55 17 30 33 55 34 55 2 0 3 -14 4 -30 0 -17 -3 -28 -8 -25 -5 3
-16 -7 -24 -23 -8 -16 -22 -35 -31 -42 -14 -12 -18 -12 -26 1 -11 17 -7 29 33
91 44 68 48 51 5 -22z m-3787 36 c0 -2 -7 -7 -16 -10 -8 -3 -12 -2 -9 4 6 10
25 14 25 6z m-226 -31 c-28 -22 -40 -18 -13 4 13 11 26 17 28 15 3 -2 -4 -11
-15 -19z m108 -18 c-6 -7 -30 -23 -54 -36 -52 -29 -46 -20 13 19 50 33 55 35
41 17z m946 -12 c-6 -14 -13 -23 -15 -21 -5 5 15 46 22 46 3 0 -1 -11 -7 -25z
m-1158 -40 c-7 -8 -17 -15 -22 -15 -11 0 14 29 26 30 5 0 3 -7 -4 -15z m1127
-31 l-15 -29 3 35 c2 19 4 37 4 40 1 2 6 -1 12 -7 8 -8 7 -19 -4 -39z m-1007
6 c8 -5 11 -12 7 -16 -4 -4 -15 0 -24 9 -18 18 -8 23 17 7z m-40 -10 c0 -5 -5
-10 -11 -10 -5 0 -7 5 -4 10 3 6 8 10 11 10 2 0 4 -4 4 -10z m-30 -24 c0 -2
-7 -7 -16 -10 -8 -3 -12 -2 -9 4 6 10 25 14 25 6z m-190 -30 c0 -8 -73 -47
-83 -43 -6 2 9 13 34 25 50 24 49 23 49 18z m1221 -16 c8 11 9 8 4 -15 -3 -16
-13 -37 -22 -45 -14 -13 -14 -13 -2 7 11 18 11 25 1 35 -6 6 -12 17 -12 23 0
5 5 3 10 -5 9 -13 11 -13 21 0z m-1042 -26 c9 -8 -45 -2 -64 6 -14 7 -8 8 20
3 22 -3 42 -7 44 -9z m99 -30 c12 -4 22 -12 22 -20 0 -7 8 -17 17 -23 10 -5
15 -12 12 -15 -3 -4 -17 4 -30 17 -13 13 -33 29 -44 35 -22 13 -12 15 23 6z
m4088 -22 c-8 -16 -22 -35 -32 -43 -16 -13 -16 -12 -4 11 13 25 40 60 47 60 2
0 -3 -13 -11 -28z m73 2 c1 -10 10 -27 19 -37 12 -14 14 -22 6 -35 -17 -26
-43 -26 -64 -2 -10 12 -24 19 -29 15 -21 -12 -11 24 15 55 28 33 47 35 53 4z
m-4028 -136 c11 -16 17 -28 12 -28 -7 0 -29 28 -69 90 -12 19 -10 18 10 -5 15
-16 36 -42 47 -57z m709 72 c0 -5 -4 -10 -10 -10 -5 0 -10 5 -10 10 0 6 5 10
10 10 6 0 10 -4 10 -10z m33 -9 c-6 -23 -43 -60 -43 -43 0 7 4 12 9 12 5 0 12
11 15 25 4 14 10 25 15 25 5 0 7 -9 4 -19z m-1483 -26 c-14 -8 -32 -14 -40
-14 -8 0 -1 6 15 14 40 18 57 18 25 0z m770 1 c0 -3 -4 -8 -10 -11 -5 -3 -10
-1 -10 4 0 6 5 11 10 11 6 0 10 -2 10 -4z m620 -90 c-28 -27 -53 -47 -56 -43
-6 6 66 76 79 77 4 0 7 10 7 23 0 18 2 19 10 7 7 -11 -3 -27 -40 -64z m-10 41
c0 -2 -10 -12 -22 -23 l-23 -19 19 23 c18 21 26 27 26 19z m-575 -98 c10 -42
2 -45 -11 -3 -6 19 -8 34 -3 34 4 0 10 -14 14 -31z m22 9 c-3 -8 -6 -5 -6 6
-1 11 2 17 5 13 3 -3 4 -12 1 -19z m447 -4 c3 -8 2 -12 -4 -9 -6 3 -10 10 -10
16 0 14 7 11 14 -7z m36 -19 c-7 -9 -15 -13 -17 -11 -6 6 20 36 26 30 2 -2 -2
-10 -9 -19z m-27 -26 c4 -3 -3 -14 -15 -25 -14 -12 -18 -13 -10 -3 7 9 9 25 6
35 -5 12 -4 15 2 9 5 -5 12 -12 17 -16z m-449 -70 c3 -34 5 -80 5 -103 -1 -28
-4 -16 -10 34 -4 41 -11 87 -13 103 -3 15 -2 27 3 27 4 0 11 -28 15 -61z m396
26 c11 -13 10 -14 -4 -9 -9 3 -16 10 -16 15 0 13 6 11 20 -6z m-18 -57 c-7 -7
-12 -8 -12 -2 0 14 12 26 19 19 2 -3 -1 -11 -7 -17z m-22 -13 c0 -3 -18 -30
-40 -60 -22 -30 -40 -59 -40 -64 0 -5 -4 -13 -10 -16 -13 -8 -1 23 22 57 10
14 18 31 18 37 0 6 9 15 20 21 11 6 18 15 15 21 -4 5 -1 9 4 9 6 0 11 -2 11
-5z m-337 -150 c5 -28 4 -34 -3 -20 -8 19 -14 73 -6 64 2 -2 6 -22 9 -44z
m197 -15 c0 -5 -5 -10 -11 -10 -5 0 -7 5 -4 10 3 6 8 10 11 10 2 0 4 -4 4 -10z
m30 -5 c0 -8 -4 -15 -10 -15 -5 0 -7 7 -4 15 4 8 8 15 10 15 2 0 4 -7 4 -15z
m-20 -34 c0 -5 -7 -12 -16 -15 -14 -5 -15 -4 -4 9 14 17 20 19 20 6z m-148
-63 c11 -16 15 -28 9 -28 -12 0 -41 53 -40 72 0 9 2 8 6 -2 3 -8 15 -27 25
-42z m108 9 c-9 -7 -27 -36 -40 -64 -14 -29 -28 -53 -33 -53 -4 0 5 24 19 53
27 53 55 88 64 80 3 -3 -2 -10 -10 -16z m-80 -82 c0 -5 -5 -3 -10 5 -5 8 -10
20 -10 25 0 6 5 3 10 -5 5 -8 10 -19 10 -25z m3202 -900 c3 11 6 -19 7 -66 0
-47 10 -173 21 -281 20 -194 28 -373 19 -383 -3 -3 -11 84 -18 193 -16 236
-30 282 -31 95 0 -82 -4 -133 -10 -133 -5 0 -10 -18 -10 -40 0 -22 -4 -40 -10
-40 -5 0 -10 24 -10 53 0 60 27 460 35 527 4 28 2 40 -3 32 -12 -18 -22 33
-21 97 l2 46 12 -60 c8 -40 13 -53 17 -40z m-155 -597 c-2 -35 -3 -7 -3 62 0
69 1 97 3 63 2 -35 2 -91 0 -125z m30 -160 c-3 -8 -6 -5 -6 6 -1 11 2 17 5 13
3 -3 4 -12 1 -19z"/>
<path d="M3902 7030 c0 -14 2 -19 5 -12 2 6 2 18 0 25 -3 6 -5 1 -5 -13z"/>
<path d="M4026 6970 c7 -94 37 -227 66 -288 12 -26 21 -50 20 -54 -1 -5 4 -7
10 -5 8 1 13 -8 12 -20 0 -13 2 -21 4 -18 3 3 19 -25 35 -62 16 -38 38 -76 48
-86 21 -19 26 -43 7 -31 -7 4 -8 3 -4 -5 4 -6 11 -9 16 -6 4 2 18 -10 30 -28
12 -17 37 -43 55 -57 18 -14 31 -28 28 -33 -2 -4 19 -29 48 -55 72 -66 105
-86 42 -26 -29 28 -53 57 -53 65 1 10 3 10 11 -3 5 -10 14 -18 19 -18 22 0 7
19 -49 63 -56 43 -125 129 -164 203 -9 19 -22 34 -27 34 -6 0 -10 6 -10 14 0
8 -14 44 -30 82 -17 37 -28 69 -26 72 3 2 -1 17 -9 32 -8 16 -18 55 -21 87 -8
73 -23 104 -24 49 0 -63 -10 -37 -25 70 -13 92 -14 94 -9 24z m41 -162 c-3 -8
-6 -5 -6 6 -1 11 2 17 5 13 3 -3 4 -12 1 -19z"/>
<path d="M3794 6964 c3 -9 6 -18 6 -20 0 -3 4 -3 10 1 11 7 2 35 -12 35 -6 0
-7 -7 -4 -16z"/>
<path d="M3913 6930 c0 -30 2 -43 4 -27 2 15 2 39 0 55 -2 15 -4 2 -4 -28z"/>
<path d="M3843 6920 c0 -25 2 -35 4 -22 2 12 2 32 0 45 -2 12 -4 2 -4 -23z"/>
<path d="M3810 6861 c0 -10 7 -24 15 -31 12 -10 15 -10 15 3 0 23 -11 47 -21
47 -5 0 -9 -8 -9 -19z"/>
<path d="M3922 6825 c0 -11 4 -31 8 -45 6 -20 8 -21 8 -5 0 11 -4 31 -8 45 -6
20 -8 21 -8 5z"/>
<path d="M3842 6745 c0 -16 2 -22 5 -12 2 9 2 23 0 30 -3 6 -5 -1 -5 -18z"/>
<path d="M3986 6555 c6 -99 21 -218 22 -170 0 17 -6 82 -13 145 -14 114 -14
114 -9 25z"/>
<path d="M4096 6605 c3 -11 10 -31 14 -45 12 -36 100 -209 111 -216 5 -3 5 4
0 18 -14 36 -133 266 -125 243z"/>
<path d="M4011 6334 c0 -11 3 -14 6 -6 3 7 2 16 -1 19 -3 4 -6 -2 -5 -13z"/>
<path d="M5340 7108 c0 -4 23 -8 52 -8 28 0 49 2 47 4 -9 8 -99 12 -99 4z"/>
<path d="M5713 7103 c-18 -2 -33 -9 -33 -15 0 -13 184 -5 220 10 20 9 7 11
-65 10 -49 -1 -105 -3 -122 -5z"/>
<path d="M5208 7073 c7 -3 16 -2 19 1 4 3 -2 6 -13 5 -11 0 -14 -3 -6 -6z"/>
<path d="M5265 7056 c47 -22 168 -56 195 -55 23 0 -145 56 -200 65 -22 4 -22
3 5 -10z"/>
<path d="M5104 7019 c54 -22 103 -38 108 -37 19 7 -153 78 -185 77 -12 0 22
-18 77 -40z"/>
<path d="M5498 6993 c7 -3 16 -2 19 1 4 3 -2 6 -13 5 -11 0 -14 -3 -6 -6z"/>
<path d="M5345 6960 c19 -8 103 -14 94 -6 -2 2 -29 6 -59 9 -34 3 -47 2 -35
-3z"/>
<path d="M5743 6953 c9 -2 23 -2 30 0 6 3 -1 5 -18 5 -16 0 -22 -2 -12 -5z"/>
<path d="M5583 6923 c15 -2 37 -2 50 0 12 2 0 4 -28 4 -27 0 -38 -2 -22 -4z"/>
<path d="M2340 6835 c0 -5 5 -17 10 -25 5 -8 10 -10 10 -5 0 6 -5 17 -10 25
-5 8 -10 11 -10 5z"/>
<path d="M2170 6565 c14 -8 30 -14 35 -14 6 0 -1 6 -15 14 -14 8 -29 14 -35
14 -5 0 1 -6 15 -14z"/>
<path d="M2368 6483 c12 -2 32 -2 45 0 12 2 2 4 -23 4 -25 0 -35 -2 -22 -4z"/>
<path d="M2460 6464 c-17 -9 -20 -14 -9 -14 9 0 22 7 29 15 15 18 13 18 -20
-1z"/>
<path d="M2383 6443 c-13 -2 -23 -8 -23 -13 0 -5 15 -4 33 2 52 18 47 22 -10
11z"/>
<path d="M6572 6865 c0 -11 4 -31 8 -45 l8 -25 0 25 c0 14 -3 34 -8 45 l-9 20
1 -20z"/>
<path d="M6396 6806 c3 -26 14 -63 24 -81 38 -68 45 -80 57 -92 7 -8 20 -26
29 -42 18 -30 54 -58 54 -41 0 5 -4 10 -8 10 -4 0 -16 13 -25 30 -10 16 -23
35 -30 43 -26 28 -86 143 -97 187 -8 31 -9 29 -4 -14z"/>
<path d="M6390 6680 c0 -17 17 -47 23 -40 2 3 -2 16 -10 30 -7 14 -13 18 -13
10z"/>
<path d="M7040 6500 c14 -4 34 -8 45 -8 16 0 15 2 -5 8 -14 4 -34 8 -45 8 -16
0 -15 -2 5 -8z"/>
<path d="M7150 6479 c0 -5 5 -7 10 -4 6 3 10 8 10 11 0 2 -4 4 -10 4 -5 0 -10
-5 -10 -11z"/>
<path d="M6396 6468 c9 -23 88 -66 144 -78 30 -6 91 -15 135 -19 44 -5 64 -9
45 -10 -19 -1 -42 -6 -50 -12 -11 -7 4 -8 50 -3 36 3 70 10 75 14 6 4 26 11
45 15 19 4 41 12 47 17 7 6 23 8 34 5 12 -3 35 1 50 9 15 7 37 14 48 14 11 0
39 9 61 21 40 21 59 39 41 39 -5 0 -11 -5 -13 -11 -2 -7 -18 -12 -35 -13 -17
0 -29 -4 -26 -8 2 -5 1 -8 -4 -8 -4 0 -48 -7 -98 -15 -49 -8 -109 -15 -133
-15 -30 0 -41 -4 -36 -11 5 -9 -23 -10 -108 -6 -118 6 -190 25 -250 68 -16 12
-26 15 -22 7z"/>
<path d="M6615 6456 c17 -9 41 -15 55 -15 23 1 23 2 -5 9 -73 20 -82 21 -50 6z"/>
<path d="M6698 6463 c7 -3 16 -2 19 1 4 3 -2 6 -13 5 -11 0 -14 -3 -6 -6z"/>
<path d="M6708 6433 c6 -2 18 -2 25 0 6 3 1 5 -13 5 -14 0 -19 -2 -12 -5z"/>
<path d="M6678 6403 c7 -3 16 -2 19 1 4 3 -2 6 -13 5 -11 0 -14 -3 -6 -6z"/>
<path d="M6568 6353 c7 -3 16 -2 19 1 4 3 -2 6 -13 5 -11 0 -14 -3 -6 -6z"/>
<path d="M7330 6896 c0 -2 9 -6 20 -9 11 -3 18 -1 14 4 -5 9 -34 13 -34 5z"/>
<path d="M3420 6960 c-9 -6 -10 -10 -3 -10 6 0 15 5 18 10 8 12 4 12 -15 0z"/>
<path d="M3395 6930 c-3 -5 -1 -10 4 -10 6 0 11 5 11 10 0 6 -2 10 -4 10 -3 0
-8 -4 -11 -10z"/>
<path d="M3455 6863 c-11 -21 -25 -45 -32 -53 -7 -8 -25 -32 -42 -53 l-29 -37
4 42 c2 24 2 36 -2 28 -28 -73 -67 -117 -154 -175 -96 -64 -163 -88 -232 -83
-49 4 -56 2 -46 -10 9 -10 30 -13 79 -10 68 4 152 39 226 94 37 28 48 30 39 8
-3 -9 -2 -12 4 -9 6 4 9 14 8 23 -2 12 3 16 17 14 11 -2 17 -1 13 4 -11 11 11
34 27 28 7 -3 16 3 19 13 3 10 18 32 32 48 36 41 104 147 104 161 0 16 -19 -2
-35 -33z"/>
<path d="M2780 6749 c0 -21 70 -78 108 -89 89 -26 251 -20 288 11 21 17 11 21
-22 8 -50 -19 -164 -21 -224 -3 -65 19 -110 44 -110 60 0 7 -7 15 -16 18 -21
8 -24 8 -24 -5z"/>
<path d="M2765 6690 c3 -5 8 -10 11 -10 2 0 4 5 4 10 0 6 -5 10 -11 10 -5 0
-7 -4 -4 -10z"/>
<path d="M3165 6631 c-3 -6 -15 -11 -26 -11 -10 0 -19 -4 -19 -10 0 -5 6 -10
13 -10 16 1 52 28 45 36 -3 3 -9 1 -13 -5z"/>
<path d="M2860 6620 c8 -5 22 -10 30 -10 13 0 13 1 0 10 -8 5 -22 10 -30 10
-13 0 -13 -1 0 -10z"/>
<path d="M3205 6570 c-3 -6 1 -7 9 -4 18 7 21 14 7 14 -6 0 -13 -4 -16 -10z"/>
<path d="M7600 6709 c0 -5 5 -7 10 -4 6 3 10 8 10 11 0 2 -4 4 -10 4 -5 0 -10
-5 -10 -11z"/>
<path d="M7770 6690 c-25 -10 -55 -19 -66 -19 -12 -1 -24 -7 -27 -15 -4 -10
14 -7 71 10 41 13 80 28 86 34 16 16 -13 11 -64 -10z"/>
<path d="M7915 6480 c8 -13 54 -18 70 -6 12 9 6 11 -30 13 -25 1 -43 -2 -40
-7z"/>
<path d="M7997 6456 c-4 -10 0 -12 14 -9 27 7 34 23 11 23 -11 0 -22 -6 -25
-14z"/>
<path d="M7434 6432 c4 -19 1 -22 -15 -17 -11 4 -19 2 -19 -4 0 -6 10 -11 23
-11 12 0 33 -3 47 -5 24 -5 24 -5 4 6 -12 6 -27 21 -33 33 -11 21 -11 21 -7
-2z"/>
<path d="M8263 6223 c15 -2 39 -2 55 0 15 2 2 4 -28 4 -30 0 -43 -2 -27 -4z"/>
<path d="M8250 5905 c7 -9 15 -13 17 -11 7 7 -7 26 -19 26 -6 0 -6 -6 2 -15z"/>
<path d="M5498 5823 c7 -3 16 -2 19 1 4 3 -2 6 -13 5 -11 0 -14 -3 -6 -6z"/>
<path d="M5360 5809 c0 -5 5 -7 10 -4 6 3 10 8 10 11 0 2 -4 4 -10 4 -5 0 -10
-5 -10 -11z"/>
<path d="M3150 5874 c0 -8 5 -12 10 -9 6 3 10 10 10 16 0 5 -4 9 -10 9 -5 0
-10 -7 -10 -16z"/>
<path d="M4015 5820 c9 -30 13 -35 21 -27 3 3 -2 16 -11 29 l-17 23 7 -25z"/>
<path d="M3486 5821 c-9 -15 70 -79 112 -92 44 -13 98 -6 128 15 29 22 11 28
-34 13 -24 -8 -46 -11 -54 -6 -7 5 -25 9 -39 9 -16 0 -40 13 -62 35 -39 38
-43 40 -51 26z"/>
<path d="M3832 5770 c5 -17 39 -28 88 -28 26 0 21 3 -20 9 -30 5 -58 15 -63
22 -6 9 -7 8 -5 -3z"/>
<path d="M7425 4900 c3 -5 12 -7 20 -3 21 7 19 13 -6 13 -11 0 -18 -4 -14 -10z"/>
<path d="M7400 4890 c0 -5 5 -10 11 -10 5 0 7 5 4 10 -3 6 -8 10 -11 10 -2 0
-4 -4 -4 -10z"/>
<path d="M7445 4820 c3 -5 14 -10 23 -10 15 0 15 2 2 10 -20 13 -33 13 -25 0z"/>
<path d="M7418 4803 c7 -3 16 -2 19 1 4 3 -2 6 -13 5 -11 0 -14 -3 -6 -6z"/>
<path d="M8360 6640 c-19 -16 -30 -29 -24 -30 5 0 23 14 39 30 37 38 29 39
-15 0z"/>
<path d="M7794 6032 c-65 -48 -222 -219 -249 -271 -13 -27 -27 -69 -30 -93
l-5 -43 13 35 c6 19 16 42 21 50 6 8 18 30 28 50 10 19 17 26 14 15 -16 -66
-17 -114 -3 -147 8 -20 23 -70 32 -110 15 -69 15 -78 0 -114 -10 -26 -30 -47
-57 -64 -51 -31 -138 -112 -138 -128 0 -21 14 -13 32 17 9 16 25 34 37 40 34
19 44 -15 31 -105 -13 -99 -13 -124 3 -124 16 0 29 25 53 100 12 39 29 66 58
93 101 94 115 109 131 143 25 53 39 152 27 194 -10 33 -10 32 -11 -26 -1 -74
-23 -140 -59 -182 -27 -31 -27 -31 -64 -16 -35 15 -36 16 -22 42 22 43 18 150
-8 203 -33 65 -32 191 1 236 13 18 27 30 31 28 4 -3 20 13 35 35 15 22 30 40
32 40 2 0 1 -4 -2 -10 -3 -6 1 -7 10 -4 9 4 14 13 11 20 -3 7 0 16 6 20 7 4 8
3 4 -4 -9 -16 -5 -15 33 4 23 12 45 14 81 9 28 -4 47 -11 44 -16 -3 -6 -2 -15
4 -22 16 -21 32 -127 32 -214 0 -46 4 -83 9 -83 12 0 25 199 16 247 -3 21 -17
64 -30 96 -24 61 -24 63 6 47 27 -15 25 5 -3 24 -37 26 -109 20 -154 -12z m86
-22 c18 -12 2 -12 -25 0 -13 6 -15 9 -5 9 8 0 22 -4 30 -9z m-70 -24 c0 -3 -4
-8 -10 -11 -5 -3 -10 -1 -10 4 0 6 5 11 10 11 6 0 10 -2 10 -4z m90 -6 c0 -5
-4 -10 -10 -10 -5 0 -10 5 -10 10 0 6 5 10 10 10 6 0 10 -4 10 -10z m-270
-640 c0 -5 -6 -10 -14 -10 -7 0 -25 -9 -39 -20 -14 -11 -28 -20 -32 -20 -4 0
9 14 30 30 39 31 55 37 55 20z m20 -30 c0 -5 -4 -10 -10 -10 -5 0 -10 5 -10
10 0 6 5 10 10 10 6 0 10 -4 10 -10z m-30 -32 c0 -7 -4 -19 -9 -27 -7 -10 -9
-7 -8 12 2 26 17 39 17 15z m-49 -56 c-4 -29 -13 -58 -21 -65 -10 -10 -11 -8
-5 8 5 11 9 34 10 50 1 28 14 69 20 63 1 -2 -1 -27 -4 -56z"/>
<path d="M7800 5802 c0 -13 16 -47 34 -77 83 -129 100 -200 72 -298 -15 -52
-83 -184 -111 -217 -15 -17 -105 -191 -105 -202 0 -25 24 1 56 60 21 37 64
112 96 168 32 55 67 127 78 159 36 106 21 211 -43 301 -19 27 -44 67 -56 89
-17 32 -21 35 -21 17z"/>
<path d="M2537 5666 c-8 -19 -11 -325 -4 -332 11 -11 16 55 16 199 -1 81 -2
147 -4 147 -2 0 -5 -6 -8 -14z"/>
<path d="M2709 5633 c-14 -3 -17 -24 -21 -116 -3 -62 -4 -113 -2 -115 1 -2 9
12 18 30 21 44 117 159 128 152 4 -3 8 -24 8 -47 0 -44 25 -211 33 -224 9 -15
57 -255 52 -263 -5 -7 76 -88 115 -114 34 -22 63 -22 51 2 -12 21 -41 164 -41
198 0 14 -4 23 -9 20 -5 -4 -7 11 -4 34 3 21 2 47 -2 57 -5 10 -9 29 -10 43
-1 14 -5 81 -9 150 -9 140 -10 138 57 160 39 12 415 15 466 3 17 -4 23 -2 16
4 -17 18 -292 33 -566 32 -145 -1 -271 -3 -280 -6z m554 -10 c-13 -2 -33 -2
-45 0 -13 2 -3 4 22 4 25 0 35 -2 23 -4z m-347 -81 c0 -50 -2 -66 -7 -47 -9
42 -11 125 -1 125 4 0 7 -35 8 -78z m11 -114 c-3 -8 -6 -5 -6 6 -1 11 2 17 5
13 3 -3 4 -12 1 -19z m10 -70 c-2 -13 -4 -5 -4 17 -1 22 1 32 4 23 2 -10 2
-28 0 -40z m40 -20 c-3 -8 -6 -5 -6 6 -1 11 2 17 5 13 3 -3 4 -12 1 -19z m30
-50 c-3 -7 -5 -2 -5 12 0 14 2 19 5 13 2 -7 2 -19 0 -25z m-48 -25 c-1 -33 -2
-35 -8 -13 -4 14 -6 31 -3 38 8 22 12 13 11 -25z m31 -119 c7 -30 9 -58 7 -61
-3 -3 -9 12 -12 33 -3 22 -10 49 -15 62 -6 13 -6 22 0 22 4 0 14 -25 20 -56z
m37 -76 c-3 -7 -5 -2 -5 12 0 14 2 19 5 13 2 -7 2 -19 0 -25z m-13 -33 c5 -22
4 -26 -4 -15 -5 8 -10 24 -10 34 0 26 6 18 14 -19z m28 3 c-8 -8 -9 -4 -5 13
4 13 8 18 11 10 2 -7 -1 -18 -6 -23z m-15 -60 c-3 -8 -6 -5 -6 6 -1 11 2 17 5
13 3 -3 4 -12 1 -19z m30 -10 c-3 -8 -6 -5 -6 6 -1 11 2 17 5 13 3 -3 4 -12 1
-19z"/>
<path d="M3603 5593 c9 -2 25 -2 35 0 9 3 1 5 -18 5 -19 0 -27 -2 -17 -5z"/>
<path d="M7660 5546 c0 -2 7 -9 15 -16 13 -11 14 -10 9 4 -5 14 -24 23 -24 12z"/>
<path d="M2542 5285 c4 -23 216 -230 225 -221 4 4 -45 59 -110 122 -65 63
-117 108 -115 99z"/>
<path d="M2769 5177 c19 -20 36 -37 38 -37 10 0 -14 29 -40 49 l-32 25 34 -37z"/>
<path d="M5109 5090 c24 -22 46 -38 49 -36 5 6 -51 56 -77 69 -9 5 4 -10 28
-33z"/>
<path d="M3869 5023 c-13 -17 -13 -17 6 -3 11 8 22 16 24 17 2 2 0 3 -6 3 -6
0 -17 -8 -24 -17z"/>
<path d="M5196 5027 c3 -8 21 -23 40 -33 19 -10 34 -22 34 -25 0 -4 7 -10 16
-13 13 -5 14 -3 6 7 -20 24 -102 78 -96 64z"/>
<path d="M2835 4980 c10 -11 20 -20 23 -20 3 0 -3 9 -13 20 -10 11 -20 20 -23
20 -3 0 3 -9 13 -20z"/>
<path d="M6055 4970 l-30 -8 27 -1 c15 0 30 4 33 9 3 6 5 9 3 9 -2 -1 -16 -5
-33 -9z"/>
<path d="M5865 4950 c-34 -5 -122 -13 -195 -20 -74 -6 -157 -15 -185 -20 -48
-9 -47 -9 16 -4 37 2 132 9 210 14 79 5 169 16 199 24 61 15 45 17 -45 6z"/>
<path d="M5310 4936 c0 -2 7 -7 16 -10 8 -3 12 -2 9 4 -6 10 -25 14 -25 6z"/>
<path d="M3338 4913 c34 -2 90 -2 125 0 34 2 6 3 -63 3 -69 0 -97 -1 -62 -3z"/>
<path d="M6337 4566 c-18 -14 -24 -32 -6 -21 5 4 19 -3 30 -16 l19 -22 0 25
c0 35 -20 50 -43 34z"/>
<path d="M6255 4442 c-6 -4 -18 -19 -28 -35 -17 -27 -17 -27 8 -39 14 -6 25
-15 25 -19 0 -14 -41 -21 -54 -10 -10 8 -17 7 -27 -5 -11 -14 -10 -15 7 -12
13 2 19 -3 19 -17 0 -17 -6 -20 -37 -18 -21 1 -38 -2 -38 -7 0 -6 7 -10 16
-10 12 0 15 -6 11 -22 -5 -20 -4 -21 6 -7 7 9 22 21 35 28 12 6 22 18 22 27 0
8 11 20 25 26 14 6 25 18 25 26 0 9 10 26 22 39 18 19 20 28 12 41 -13 19 -34
26 -49 14z m30 -33 c0 -8 -8 -13 -20 -11 -28 5 -32 12 -15 22 19 12 35 7 35
-11z"/>
<path d="M6060 4225 c-8 -9 -8 -15 -2 -15 6 0 14 5 17 10 4 7 13 6 27 -1 16
-9 19 -8 16 3 -7 19 -43 22 -58 3z"/>
<path d="M5978 4179 c-22 -18 -25 -25 -16 -45 9 -19 14 -21 37 -13 39 15 59
38 54 60 -7 25 -42 25 -75 -2z m57 -8 c3 -6 -3 -15 -14 -21 -21 -11 -37 2 -26
20 8 13 32 13 40 1z"/>
<path d="M5895 4120 c-4 -7 2 -9 19 -4 16 4 26 2 26 -5 0 -6 4 -11 10 -11 5 0
7 7 4 15 -7 17 -50 20 -59 5z"/>
<path d="M5785 4065 c-27 -13 -42 -25 -32 -25 20 0 23 -26 5 -34 -7 -3 1 -3
17 1 44 8 110 46 110 63 0 24 -46 22 -100 -5z m85 7 c0 -7 -23 -22 -61 -39 -4
-2 -9 4 -13 12 -3 10 5 17 27 24 42 12 47 12 47 3z"/>
<path d="M5555 4020 c-4 -6 5 -10 20 -10 36 0 27 -23 -11 -31 -16 -4 1 -6 37
-4 66 3 109 19 109 42 0 16 -146 18 -155 3z m130 -10 c7 -11 -38 -24 -57 -17
-8 3 -4 9 12 15 32 14 38 14 45 2z"/>
<path d="M4765 4009 c-81 -16 -292 -22 -352 -10 -40 9 -66 9 -83 2 -23 -9 -22
-10 15 -11 51 -1 86 -20 38 -20 -18 0 -51 -7 -73 -16 -49 -20 -62 -12 -29 17
l24 21 -28 -16 c-27 -16 -105 -96 -162 -163 -15 -18 -36 -33 -47 -33 -26 0
-18 -24 10 -28 13 -2 28 -17 38 -38 35 -73 91 -115 235 -177 145 -63 507 -56
671 12 42 18 78 36 80 40 2 4 28 22 58 40 78 48 169 128 166 148 -2 10 -19 20
-47 28 -25 6 -90 36 -144 66 -117 64 -240 124 -275 134 -45 12 -54 13 -95 4z
m94 -25 c39 -8 40 -20 1 -29 -40 -9 -90 3 -90 21 0 15 36 18 89 8z m-479 -49
c8 -9 8 -15 2 -15 -18 0 -42 12 -42 21 0 14 26 10 40 -6z m95 -15 c3 -6 -1 -7
-9 -4 -18 7 -21 14 -7 14 6 0 13 -4 16 -10z m435 -110 c0 -19 -44 -32 -88 -27
-32 3 -50 1 -60 -10 -10 -9 -36 -14 -76 -14 -33 -1 -84 -1 -112 -2 -32 -1 -58
3 -69 13 -9 8 -32 13 -51 11 -39 -3 -74 6 -74 20 0 12 57 11 154 -3 68 -9 93
-9 156 5 85 17 220 22 220 7z m-530 -70 c0 -5 -12 -10 -27 -10 -16 -1 -39 -7
-53 -15 -14 -8 -33 -14 -43 -15 -33 0 -1 38 36 43 63 8 87 7 87 -3z m660 -25
c0 -26 -101 -71 -205 -91 -75 -15 -244 -15 -306 0 -58 13 -66 13 -82 -1 -9 -9
-20 -13 -25 -8 -4 4 -1 10 6 12 36 13 -23 35 -120 45 l-28 3 34 23 c32 22 38
22 88 11 29 -6 72 -12 96 -12 23 0 42 -4 42 -9 0 -15 249 -6 258 9 21 33 242
50 242 18z"/>
<path d="M5413 3997 c22 -22 71 -27 88 -10 20 20 -1 32 -55 31 -53 -1 -53 -1
-33 -21z m77 -3 c0 -2 -11 -4 -25 -4 -14 0 -25 4 -25 9 0 4 11 6 25 3 14 -2
25 -6 25 -8z"/>
<path d="M5525 3999 c-4 -6 -5 -12 -2 -15 2 -3 7 2 10 11 7 17 1 20 -8 4z"/>
<path d="M9461 3084 c0 -11 3 -14 6 -6 3 7 2 16 -1 19 -3 4 -6 -2 -5 -13z"/>
<path d="M9140 2744 c58 -8 148 -8 143 -1 -2 4 -41 6 -86 6 -45 -1 -71 -3 -57
-5z"/>
<path d="M8068 2553 c7 -3 16 -2 19 1 4 3 -2 6 -13 5 -11 0 -14 -3 -6 -6z"/>
<path d="M9003 1715 c0 -22 2 -30 4 -17 2 12 2 30 0 40 -3 9 -5 -1 -4 -23z"/>
<path d="M8891 1674 c0 -11 3 -14 6 -6 3 7 2 16 -1 19 -3 4 -6 -2 -5 -13z"/>
<path d="M9003 1635 c0 -22 2 -30 4 -17 2 12 2 30 0 40 -3 9 -5 -1 -4 -23z"/>
<path d="M9443 1070 c0 -30 2 -43 4 -27 2 15 2 39 0 55 -2 15 -4 2 -4 -28z"/>
<path d="M9148 1064 c-7 -11 3 -155 20 -289 l7 -60 8 100 c9 131 8 197 -3 170
-7 -19 -8 -18 -14 5 -3 14 -7 39 -8 55 -2 17 -6 25 -10 19z"/>
<path d="M8823 960 c0 -47 2 -66 4 -42 2 23 2 61 0 85 -2 23 -4 4 -4 -43z"/>
<path d="M9250 932 c0 -66 -13 -80 -32 -34 -11 26 -12 25 -19 -28 -12 -92 -10
-279 5 -441 10 -101 12 -185 7 -244 l-8 -90 -2 80 c0 44 -4 125 -8 180 -9 134
-19 85 -29 -140 -4 -100 -10 -162 -15 -150 -4 11 -8 114 -9 230 -2 141 -5 197
-11 170 -4 -22 -8 -136 -8 -252 -1 -178 1 -213 13 -213 8 0 17 10 19 22 l4 23
2 -22 c1 -19 7 -23 31 -23 l30 0 0 80 c0 106 18 104 22 -2 2 -46 7 139 11 410
5 272 6 496 3 500 -3 3 -6 -22 -6 -56z m-43 -274 c-2 -13 -4 -5 -4 17 -1 22 1
32 4 23 2 -10 2 -28 0 -40z"/>
<path d="M9452 935 c0 -27 4 -61 8 -75 7 -23 8 -22 8 10 1 19 -3 53 -7 75 l-9
40 0 -50z"/>
<path d="M9553 800 c0 -47 2 -66 4 -42 2 23 2 61 0 85 -2 23 -4 4 -4 -43z"/>
<path d="M9147 631 c2 -113 5 -207 8 -209 8 -8 4 274 -5 348 -4 37 -5 -23 -3
-139z"/>
<path d="M9463 750 c0 -30 2 -43 4 -27 2 15 2 39 0 55 -2 15 -4 2 -4 -28z"/>
<path d="M9342 760 c0 -14 2 -19 5 -12 2 6 2 18 0 25 -3 6 -5 1 -5 -13z"/>
<path d="M9277 531 c-4 -134 -7 -309 -7 -388 l0 -143 25 0 25 0 0 158 c0 186
-10 403 -19 398 -3 -3 -6 21 -5 52 0 32 -2 82 -6 112 -3 34 -8 -40 -13 -189z
m20 -98 c-3 -10 -5 -2 -5 17 0 19 2 27 5 18 2 -10 2 -26 0 -35z m0 -105 c-3
-7 -5 -2 -5 12 0 14 2 19 5 13 2 -7 2 -19 0 -25z m0 -200 c-2 -29 -3 -8 -3 47
0 55 1 79 3 53 2 -26 2 -71 0 -100z"/>
<path d="M9662 680 c-23 -69 -70 -321 -57 -309 3 3 17 66 31 140 14 74 29 138
34 142 4 5 11 -40 14 -100 10 -158 15 -177 10 -33 -3 69 -8 141 -13 160 l-7
35 -12 -35z"/>
<path d="M9323 625 c0 -38 2 -53 4 -32 2 20 2 52 0 70 -2 17 -4 1 -4 -38z"/>
<path d="M9375 457 c6 -125 22 -233 24 -170 1 12 5 25 11 28 6 4 7 -51 3 -155
-6 -145 -5 -160 10 -160 15 0 17 21 16 208 -1 114 -5 218 -9 232 -8 25 -8 24
-9 -5 -1 -16 -5 -36 -10 -44 -6 -9 -8 16 -6 65 4 68 1 84 -16 109 l-20 30 6
-138z"/>
<path d="M9338 523 c-1 -32 1 -150 6 -263 5 -113 9 -217 9 -233 0 -20 5 -27
20 -27 19 0 20 4 13 152 -4 84 -12 156 -18 159 -5 3 -12 64 -15 135 -3 71 -6
130 -8 132 -2 2 -5 -23 -7 -55z"/>
<path d="M9487 483 c3 -54 1 -83 -5 -83 -6 0 -13 6 -16 13 -3 6 -4 -76 -4
-183 1 -107 5 -184 9 -170 4 14 8 59 8 100 1 41 6 82 12 90 8 11 9 -22 5 -118
-4 -105 -3 -132 8 -132 9 0 15 24 19 83 10 121 8 285 -2 268 -14 -22 -31 20
-25 60 3 19 0 61 -5 94 -9 58 -10 57 -4 -22z"/>
<path d="M9441 494 c0 -11 3 -14 6 -6 3 7 2 16 -1 19 -3 4 -6 -2 -5 -13z"/>
<path d="M9533 440 c0 -25 2 -35 4 -22 2 12 2 32 0 45 -2 12 -4 2 -4 -23z"/>
<path d="M9441 444 c0 -11 3 -14 6 -6 3 7 2 16 -1 19 -3 4 -6 -2 -5 -13z"/>
<path d="M9832 365 c0 -11 5 -72 13 -135 11 -100 13 -106 13 -50 1 36 -5 97
-12 135 -8 39 -14 61 -14 50z"/>
<path d="M9582 280 c0 -14 2 -19 5 -12 2 6 2 18 0 25 -3 6 -5 1 -5 -13z"/>
<path d="M10046 261 c9 -17 17 -31 19 -31 8 0 -9 40 -21 51 -10 8 -10 3 2 -20z"/>
<path d="M9771 254 c0 -11 3 -14 6 -6 3 7 2 16 -1 19 -3 4 -6 -2 -5 -13z"/>
<path d="M10006 255 c-9 -26 -7 -32 5 -12 6 10 9 21 6 23 -2 3 -7 -2 -11 -11z"/>
<path d="M9556 182 c4 -50 3 -86 -3 -94 -14 -18 -24 -88 -12 -88 5 0 9 19 9
42 0 50 16 41 23 -12 2 -19 5 20 5 86 2 99 -1 124 -13 134 -14 12 -15 4 -9
-68z"/>
<path d="M9678 126 c-4 -66 -5 -122 -3 -125 13 -12 15 15 13 125 l-3 119 -7
-119z"/>
<path d="M10072 190 c0 -14 2 -19 5 -12 2 6 2 18 0 25 -3 6 -5 1 -5 -13z"/>
<path d="M9722 159 c-1 -22 4 -42 13 -49 10 -9 15 -9 15 -1 0 6 -4 11 -9 11
-6 0 -12 17 -14 38 l-4 37 -1 -36z"/>
<path d="M9981 183 c-1 -6 -4 -20 -7 -30 -5 -17 -5 -17 6 0 6 10 9 23 6 30 -3
9 -5 9 -5 0z"/>
<path d="M9602 90 l1 -95 7 80 c5 44 4 87 -1 95 -5 9 -8 -22 -7 -80z"/>
<path d="M10082 135 c0 -16 2 -22 5 -12 2 9 2 23 0 30 -3 6 -5 -1 -5 -18z"/>
<path d="M9961 123 c-1 -6 -4 -20 -7 -30 -5 -17 -5 -17 6 0 6 10 9 23 6 30 -3
9 -5 9 -5 0z"/>
<path d="M10092 75 c0 -16 2 -22 5 -12 2 9 2 23 0 30 -3 6 -5 -1 -5 -18z"/>
<path d="M9621 45 c0 -35 2 -37 11 -19 7 15 7 28 -1 40 -9 16 -10 12 -10 -21z"/>
<path d="M9730 61 c0 -25 6 -27 13 -6 4 8 2 17 -3 20 -6 4 -10 -3 -10 -14z"/>
<path d="M9863 40 c0 -25 2 -35 4 -22 2 12 2 32 0 45 -2 12 -4 2 -4 -23z"/>
<path d="M9715 20 c-8 -13 -1 -24 14 -19 6 3 7 10 2 18 -6 10 -10 10 -16 1z"/>
<path d="M10101 14 c0 -11 3 -14 6 -6 3 7 2 16 -1 19 -3 4 -6 -2 -5 -13z"/>
<path d="M9920 10 c0 -5 5 -10 10 -10 6 0 10 5 10 10 0 6 -4 10 -10 10 -5 0
-10 -4 -10 -10z"/>
</g>
</svg>
