<?xml version="1.0" standalone="no"?>
<!DOCTYPE svg PUBLIC "-//W3C//DTD SVG 20010904//EN"
 "http://www.w3.org/TR/2001/REC-SVG-20010904/DTD/svg10.dtd">
<svg version="1.0" xmlns="http://www.w3.org/2000/svg"
 width="512.000000pt" height="512.000000pt" viewBox="0 0 512.000000 512.000000"
 preserveAspectRatio="xMidYMid meet">

<g transform="translate(0.000000,512.000000) scale(0.100000,-0.100000)"
fill="#000000" stroke="none">
<path d="M1965 5094 c-493 -67 -955 -294 -1303 -642 -567 -567 -789 -1383
-587 -2158 207 -794 846 -1423 1646 -1618 190 -46 317 -60 539 -60 233 0 353
15 569 70 291 74 605 230 825 409 l57 47 237 -231 c130 -126 379 -372 552
-546 173 -174 332 -325 352 -336 68 -35 170 -17 220 38 25 27 48 87 48 123 0
72 -21 96 -586 661 l-555 555 47 59 c203 249 373 610 439 931 36 178 46 281
46 474 0 374 -80 701 -252 1028 -346 663 -984 1105 -1729 1198 -141 17 -430
17 -565 -2z m565 -373 c415 -63 767 -239 1060 -531 360 -361 551 -820 551
-1326 0 -520 -200 -990 -572 -1349 -287 -277 -620 -443 -1024 -511 -133 -22
-431 -23 -571 -1 -406 65 -763 247 -1054 537 -283 284 -457 625 -526 1035 -24
139 -24 434 0 575 101 613 472 1117 1028 1396 331 166 739 231 1108 175z"/>
</g>
</svg>
