<svg width="313" height="313" viewBox="0 0 313 313" fill="none" xmlns="http://www.w3.org/2000/svg">
<path d="M124.931 31.2148C100.08 31.2148 76.248 41.0865 58.6762 58.6583C41.1044 76.2301 31.2327 100.063 31.2327 124.913C31.2327 149.763 41.1044 173.596 58.6762 191.167C76.248 208.739 100.08 218.611 124.931 218.611C149.781 218.611 173.613 208.739 191.185 191.167C208.757 173.596 218.629 149.763 218.629 124.913C218.629 100.063 208.757 76.2301 191.185 58.6583C173.613 41.0865 149.781 31.2148 124.931 31.2148ZM7.71701e-07 124.913C0.00284727 105.031 4.75077 85.437 13.8492 67.7592C22.9476 50.0815 36.1337 34.8304 52.3117 23.2737C68.4896 11.7169 87.1922 4.18814 106.865 1.31312C126.538 -1.5619 146.613 0.299847 165.421 6.74363C184.23 13.1874 201.229 24.0271 215.006 38.3619C228.783 52.6967 238.939 70.1125 244.631 89.162C250.324 108.211 251.387 128.344 247.734 147.888C244.081 167.431 235.816 185.82 223.626 201.527L307.751 285.652C310.596 288.597 312.17 292.542 312.134 296.636C312.099 300.731 310.456 304.648 307.561 307.543C304.665 310.438 300.749 312.081 296.654 312.116C292.56 312.152 288.615 310.578 285.67 307.733L201.544 223.608C183.077 237.945 160.958 246.813 137.701 249.203C114.444 251.593 90.9837 247.409 69.9869 237.127C48.9901 226.845 31.2997 210.877 18.9274 191.04C6.5551 171.203 -0.00259732 148.292 7.71701e-07 124.913V124.913Z" fill="#4E8E44"/>
</svg>
